<svg width="36" height="36" viewBox="0 0 36 36" fill="none" xmlns="http://www.w3.org/2000/svg">
<path d="M18 36C27.9411 36 36 27.9411 36 18C36 8.05887 27.9411 0 18 0C8.05887 0 0 8.05887 0 18C0 27.9411 8.05887 36 18 36Z" fill="#D9EEFF"/>
<path d="M25.2 12H10.8C9.80595 12 9 12.8187 9 13.8286V22.9714C9 23.9813 9.80595 24.8 10.8 24.8H25.2C26.194 24.8 27 23.9813 27 22.9714V13.8286C27 12.8187 26.194 12 25.2 12Z" fill="#2196F3"/>
<path d="M27 13.84C27 13.6274 26.9572 13.4267 26.892 13.2366L18 19.7829L9.10845 13.2366C9.04275 13.4267 9 13.6279 9 13.84V14.2857L18 20.912L27 14.2857V13.84Z" fill="#037BDB"/>
</svg>
