<svg width="24" height="24" viewBox="0 0 24 24" fill="none" xmlns="http://www.w3.org/2000/svg">
<path d="M3.66737 0C2.69603 0.00394909 1.76561 0.391561 1.07877 1.0784C0.391927 1.76524 0.0043153 2.69567 0.000366211 3.667V20.333C0.0043153 21.3043 0.391927 22.2348 1.07877 22.9216C1.76561 23.6084 2.69603 23.9961 3.66737 24H20.3334C21.3047 23.9961 22.2351 23.6084 22.922 22.9216C23.6088 22.2348 23.9964 21.3043 24.0004 20.333V3.667C23.9964 2.69567 23.6088 1.76524 22.922 1.0784C22.2351 0.391561 21.3047 0.00394909 20.3334 0H3.66737ZM3.66737 2H20.3334C20.5528 1.998 20.7705 2.03975 20.9737 2.12282C21.1768 2.20588 21.3614 2.32859 21.5166 2.48379C21.6718 2.63899 21.7945 2.82355 21.8776 3.02671C21.9606 3.22986 22.0024 3.44753 22.0004 3.667V20.333C22.0024 20.5525 21.9606 20.7701 21.8776 20.9733C21.7945 21.1764 21.6718 21.361 21.5166 21.5162C21.3614 21.6714 21.1768 21.7941 20.9737 21.8772C20.7705 21.9603 20.5528 22.002 20.3334 22H16.0004V15.333H18.4174C18.5799 15.3328 18.7368 15.2732 18.8585 15.1655C18.9802 15.0578 19.0584 14.9093 19.0784 14.748L19.3284 12.748C19.3397 12.6544 19.331 12.5594 19.303 12.4694C19.2749 12.3794 19.2282 12.2963 19.1657 12.2257C19.1033 12.155 19.0266 12.0984 18.9407 12.0595C18.8548 12.0206 18.7617 12.0003 18.6674 12H16.0004V9.667C16.0009 9.31363 16.1415 8.97488 16.3914 8.72501C16.6412 8.47514 16.98 8.33453 17.3334 8.334H18.6664C18.754 8.33413 18.8408 8.31697 18.9218 8.2835C19.0028 8.25002 19.0763 8.2009 19.1383 8.13893C19.2003 8.07697 19.2494 8.00339 19.2829 7.92241C19.3163 7.84142 19.3335 7.75463 19.3334 7.667V5.417C19.3335 5.25047 19.2713 5.08993 19.1589 4.96702C19.0466 4.84411 18.8922 4.76775 18.7264 4.753C18.6874 4.753 17.7464 4.667 16.5554 4.667C13.6174 4.667 11.9994 6.411 11.9994 9.578V12H9.33337C9.24574 11.9999 9.15894 12.017 9.07796 12.0505C8.99698 12.084 8.9234 12.1331 8.86143 12.1951C8.79947 12.257 8.75034 12.3306 8.71687 12.4116C8.6834 12.4926 8.66623 12.5794 8.66637 12.667V14.667C8.66623 14.7546 8.6834 14.8414 8.71687 14.9224C8.75034 15.0034 8.79947 15.077 8.86143 15.1389C8.9234 15.2009 8.99698 15.25 9.07796 15.2835C9.15894 15.317 9.24574 15.3341 9.33337 15.334H12.0004V22H3.66737C3.4479 22.002 3.23023 21.9603 3.02707 21.8772C2.82392 21.7941 2.63935 21.6714 2.48416 21.5162C2.32896 21.361 2.20625 21.1764 2.12318 20.9733C2.04012 20.7701 1.99836 20.5525 2.00037 20.333V3.667C1.99836 3.44753 2.04012 3.22986 2.12318 3.02671C2.20625 2.82355 2.32896 2.63899 2.48416 2.48379C2.63935 2.32859 2.82392 2.20588 3.02707 2.12282C3.23023 2.03975 3.4479 1.998 3.66737 2Z" fill="url(#paint0_linear)"/>
<defs>
<linearGradient id="paint0_linear" x1="24.0004" y1="24" x2="0.000366211" y2="0" gradientUnits="userSpaceOnUse">
<stop stop-color="#0580DC"/>
<stop offset="1" stop-color="#29A3F3"/>
</linearGradient>
</defs>
</svg>
