<svg width="21" height="16" viewBox="0 0 21 16" fill="none" xmlns="http://www.w3.org/2000/svg">
<path d="M2.75 0C2.15415 0.00289187 1.58354 0.240873 1.1622 0.662205C0.740873 1.08354 0.502892 1.65415 0.5 2.25V13.75C0.502892 14.3458 0.740873 14.9165 1.1622 15.3378C1.58354 15.7591 2.15415 15.9971 2.75 16H18.25C18.8458 15.9971 19.4165 15.7591 19.8378 15.3378C20.2591 14.9165 20.4971 14.3458 20.5 13.75V2.25C20.4971 1.65415 20.2591 1.08354 19.8378 0.662205C19.4165 0.240873 18.8458 0.00289187 18.25 0H2.75ZM2.75 1.5H18.25C18.3489 1.49852 18.4471 1.5169 18.5388 1.55407C18.6304 1.59123 18.7137 1.64642 18.7836 1.71636C18.8536 1.78631 18.9088 1.86958 18.9459 1.96124C18.9831 2.05291 19.0015 2.1511 19 2.25V13.75C19.0015 13.8489 18.9831 13.9471 18.9459 14.0388C18.9088 14.1304 18.8536 14.2137 18.7836 14.2836C18.7137 14.3536 18.6304 14.4088 18.5388 14.4459C18.4471 14.4831 18.3489 14.5015 18.25 14.5H2.75C2.6511 14.5015 2.55291 14.4831 2.46124 14.4459C2.36958 14.4088 2.28631 14.3536 2.21636 14.2836C2.14642 14.2137 2.09123 14.1304 2.05407 14.0388C2.0169 13.9471 1.99852 13.8489 2 13.75V2.25C1.99852 2.1511 2.0169 2.05291 2.05407 1.96124C2.09123 1.86958 2.14642 1.78631 2.21636 1.71636C2.28631 1.64642 2.36958 1.59123 2.46124 1.55407C2.55291 1.5169 2.6511 1.49852 2.75 1.5ZM6.5 4.5C6.20333 4.5 5.91332 4.58797 5.66665 4.7528C5.41997 4.91762 5.22771 5.15189 5.11418 5.42597C5.00065 5.70006 4.97094 6.00166 5.02882 6.29264C5.0867 6.58361 5.22956 6.85088 5.43934 7.06066C5.64912 7.27044 5.91639 7.4133 6.20736 7.47118C6.49834 7.52906 6.79994 7.49935 7.07403 7.38582C7.34811 7.27229 7.58238 7.08003 7.7472 6.83335C7.91203 6.58668 8 6.29667 8 6C8 5.60218 7.84196 5.22064 7.56066 4.93934C7.27936 4.65804 6.89782 4.5 6.5 4.5ZM11.75 5.5C11.5511 5.5 11.3603 5.57902 11.2197 5.71967C11.079 5.86032 11 6.05109 11 6.25C11 6.44891 11.079 6.63968 11.2197 6.78033C11.3603 6.92098 11.5511 7 11.75 7H16.25C16.4489 7 16.6397 6.92098 16.7803 6.78033C16.921 6.63968 17 6.44891 17 6.25C17 6.05109 16.921 5.86032 16.7803 5.71967C16.6397 5.57902 16.4489 5.5 16.25 5.5H11.75ZM4.75 8.5C4.55109 8.5 4.36032 8.57902 4.21967 8.71967C4.07902 8.86032 4 9.05109 4 9.25C4 10 4 11.5 6.45 11.5H6.55C9 11.5 9 10 9 9.25C9 9.05109 8.92098 8.86032 8.78033 8.71967C8.63968 8.57902 8.44891 8.5 8.25 8.5H4.75ZM11.75 9C11.5511 9 11.3603 9.07902 11.2197 9.21967C11.079 9.36032 11 9.55109 11 9.75C11 9.94891 11.079 10.1397 11.2197 10.2803C11.3603 10.421 11.5511 10.5 11.75 10.5H16.25C16.4489 10.5 16.6397 10.421 16.7803 10.2803C16.921 10.1397 17 9.94891 17 9.75C17 9.55109 16.921 9.36032 16.7803 9.21967C16.6397 9.07902 16.4489 9 16.25 9H11.75Z" fill="black"/>
</svg>
