<svg width="21" height="19" viewBox="0 0 21 19" fill="none" xmlns="http://www.w3.org/2000/svg">
<path d="M4.17188 0.00897217C3.31089 0.0121337 2.48608 0.355559 1.87727 0.964368C1.26846 1.57318 0.925037 2.39799 0.921875 3.25897V11.759C0.925037 12.62 1.26846 13.4448 1.87727 14.0536C2.48608 14.6624 3.31089 15.0058 4.17188 15.009H4.92188V17.759C4.93147 17.987 5.00195 18.2083 5.12598 18.3998C5.25002 18.5914 5.42309 18.7463 5.62721 18.8483C5.83133 18.9504 6.05905 18.9959 6.28672 18.9802C6.5144 18.9645 6.73371 18.8881 6.92188 18.759L11.9219 15.009H17.6719C18.5329 15.0058 19.3577 14.6624 19.9665 14.0536C20.5753 13.4448 20.9187 12.62 20.9219 11.759V3.25897C20.9187 2.39799 20.5753 1.57318 19.9665 0.964368C19.3577 0.355559 18.5329 0.0121337 17.6719 0.00897217H4.17188ZM4.17188 1.50897H17.6719C17.9021 1.50751 18.1303 1.55178 18.3433 1.63921C18.5563 1.72664 18.7498 1.85548 18.9126 2.01828C19.0754 2.18107 19.2042 2.37457 19.2916 2.58755C19.3791 2.80053 19.4233 3.02875 19.4219 3.25897V11.759C19.4233 11.9892 19.3791 12.2174 19.2916 12.4304C19.2042 12.6434 19.0754 12.8369 18.9126 12.9997C18.7498 13.1625 18.5563 13.2913 18.3433 13.3787C18.1303 13.4662 17.9021 13.5104 17.6719 13.509H11.6719C11.5096 13.509 11.3517 13.5616 11.2219 13.659L6.42188 17.259V14.259C6.42188 14.0601 6.34286 13.8693 6.2022 13.7286C6.06155 13.588 5.87079 13.509 5.67188 13.509H4.17188C3.94165 13.5104 3.71343 13.4662 3.50045 13.3787C3.28747 13.2913 3.09398 13.1625 2.93118 12.9997C2.76839 12.8369 2.63954 12.6434 2.55211 12.4304C2.46468 12.2174 2.42041 11.9892 2.42188 11.759V3.25897C2.42041 3.02875 2.46468 2.80053 2.55211 2.58755C2.63954 2.37457 2.76839 2.18107 2.93118 2.01828C3.09398 1.85548 3.28747 1.72664 3.50045 1.63921C3.71343 1.55178 3.94165 1.50751 4.17188 1.50897ZM7.42188 6.50897C7.22409 6.50897 7.03075 6.56762 6.8663 6.6775C6.70186 6.78738 6.57368 6.94356 6.498 7.12629C6.42231 7.30901 6.4025 7.51008 6.44109 7.70406C6.47967 7.89804 6.57492 8.07623 6.71477 8.21608C6.85462 8.35593 7.0328 8.45117 7.22678 8.48976C7.42077 8.52834 7.62183 8.50854 7.80456 8.43285C7.98728 8.35716 8.14346 8.22899 8.25334 8.06454C8.36323 7.90009 8.42188 7.70675 8.42188 7.50897C8.42188 7.24376 8.31652 6.9894 8.12898 6.80187C7.94145 6.61433 7.68709 6.50897 7.42188 6.50897ZM10.9219 6.50897C10.7241 6.50897 10.5308 6.56762 10.3663 6.6775C10.2019 6.78738 10.0737 6.94356 9.998 7.12629C9.92231 7.30901 9.9025 7.51008 9.94109 7.70406C9.97968 7.89804 10.0749 8.07623 10.2148 8.21608C10.3546 8.35593 10.5328 8.45117 10.7268 8.48976C10.9208 8.52834 11.1218 8.50854 11.3046 8.43285C11.4873 8.35716 11.6435 8.22899 11.7533 8.06454C11.8632 7.90009 11.9219 7.70675 11.9219 7.50897C11.9219 7.24376 11.8165 6.9894 11.629 6.80187C11.4414 6.61433 11.1871 6.50897 10.9219 6.50897ZM14.4219 6.50897C14.2241 6.50897 14.0308 6.56762 13.8663 6.6775C13.7019 6.78738 13.5737 6.94356 13.498 7.12629C13.4223 7.30901 13.4025 7.51008 13.4411 7.70406C13.4797 7.89804 13.5749 8.07623 13.7148 8.21608C13.8546 8.35593 14.0328 8.45117 14.2268 8.48976C14.4208 8.52834 14.6218 8.50854 14.8046 8.43285C14.9873 8.35716 15.1435 8.22899 15.2533 8.06454C15.3632 7.90009 15.4219 7.70675 15.4219 7.50897C15.4219 7.24376 15.3165 6.9894 15.129 6.80187C14.9414 6.61433 14.6871 6.50897 14.4219 6.50897Z" fill="black"/>
</svg>
