<svg width="17" height="21" viewBox="0 0 17 21" fill="none" xmlns="http://www.w3.org/2000/svg">
<path d="M11.9977 20.502C11.6705 20.4982 11.3452 20.4525 11.0297 20.366C8.19668 19.591 5.69068 17.217 3.48968 13.48C1.28868 9.74301 0.438676 6.41101 1.17968 3.60201C1.34731 2.97819 1.67259 2.40797 2.12424 1.94616C2.57589 1.48435 3.13874 1.14648 3.75868 0.965011L4.94268 0.614011C5.58438 0.422976 6.27334 0.468723 6.88415 0.742926C7.49495 1.01713 7.98699 1.50155 8.27068 2.10801L9.18668 4.10801C9.42457 4.63138 9.49059 5.21665 9.37525 5.77986C9.25991 6.34308 8.96915 6.85529 8.54468 7.24301L7.02768 8.63001C6.98419 8.66891 6.95615 8.72215 6.94868 8.78001C6.92401 8.94189 6.94228 9.10741 7.00168 9.26001C7.18982 9.87488 7.45885 10.462 7.80168 11.006C8.12863 11.6065 8.54167 12.156 9.02768 12.637C9.20568 12.791 9.40768 12.907 9.49468 12.882L11.5307 12.272C12.0821 12.1059 12.6712 12.1139 13.2179 12.2948C13.7646 12.4757 14.2422 12.8208 14.5857 13.283L15.8857 15.049C16.2783 15.5875 16.46 16.2511 16.3965 16.9145C16.3329 17.5779 16.0284 18.1949 15.5407 18.649L14.6407 19.485C14.163 19.9269 13.5802 20.2391 12.9477 20.392C12.6368 20.4679 12.3177 20.5049 11.9977 20.502ZM12.0147 19.002C12.2117 19.0035 12.4082 18.9807 12.5997 18.934C12.9833 18.8421 13.3371 18.6538 13.6277 18.387L14.5277 17.552C14.7489 17.3505 14.8873 17.0739 14.9162 16.7761C14.945 16.4782 14.8621 16.1802 14.6837 15.94L13.3837 14.174C13.2236 13.9606 13.0018 13.8017 12.7483 13.7187C12.4948 13.6357 12.2219 13.6326 11.9667 13.71L9.91868 14.318C9.58569 14.3953 9.23836 14.3851 8.91048 14.2884C8.5826 14.1917 8.28536 14.0117 8.04768 13.766C7.43362 13.1846 6.91553 12.5095 6.51268 11.766C6.0959 11.1039 5.77157 10.3879 5.54868 9.63801C5.45845 9.30296 5.42765 8.95469 5.45768 8.60901C5.5061 8.19105 5.70391 7.80467 6.01468 7.52101L7.53168 6.13201C7.72397 5.96076 7.85607 5.73219 7.90847 5.48009C7.96088 5.22798 7.9308 4.96571 7.82268 4.73201L6.90768 2.73201C6.77371 2.45428 6.54538 2.23321 6.26347 2.10828C5.98155 1.98335 5.66441 1.9627 5.36868 2.05001L4.18468 2.40201C3.81265 2.51168 3.47469 2.71427 3.20263 2.9907C2.93058 3.26713 2.7334 3.60829 2.62968 3.98201C2.03768 6.22701 2.69168 9.16301 4.78268 12.714C6.87368 16.265 9.13568 18.289 11.4257 18.914C11.6187 18.9691 11.818 18.9987 12.0187 19.002H12.0147Z" fill="black"/>
</svg>
