<svg width="21" height="21" viewBox="0 0 21 21" fill="none" xmlns="http://www.w3.org/2000/svg">
<path d="M10.7405 0.500014C10.3136 0.49876 9.8906 0.581863 9.4959 0.74455C9.10119 0.907237 8.74252 1.1463 8.44048 1.44801L1.68848 8.20101C1.08075 8.81221 0.739624 9.6391 0.739624 10.501C0.739624 11.3629 1.08075 12.1898 1.68848 12.801L8.44148 19.554C9.05268 20.1617 9.87956 20.5029 10.7415 20.5029C11.6034 20.5029 12.4303 20.1617 13.0415 19.554L19.7925 12.801C20.4002 12.1898 20.7413 11.3629 20.7413 10.501C20.7413 9.6391 20.4002 8.81221 19.7925 8.20101L13.0395 1.44701C12.7375 1.1456 12.3789 0.90679 11.9844 0.74428C11.5899 0.58177 11.1672 0.49876 10.7405 0.500014ZM10.7405 1.99101C10.9708 1.99138 11.1988 2.03734 11.4113 2.12624C11.6237 2.21515 11.8165 2.34524 11.9785 2.50901L18.7305 9.26201C18.8945 9.42379 19.0247 9.61654 19.1136 9.82906C19.2024 10.0416 19.2482 10.2697 19.2482 10.5C19.2482 10.7304 19.2024 10.9584 19.1136 11.171C19.0247 11.3835 18.8945 11.5762 18.7305 11.738L11.9785 18.49C11.8167 18.654 11.624 18.7842 11.4114 18.8731C11.1989 18.962 10.9708 19.0078 10.7405 19.0078C10.5101 19.0078 10.2821 18.962 10.0695 18.8731C9.857 18.7842 9.66426 18.654 9.50248 18.49L2.74948 11.738C2.58548 11.5762 2.45527 11.3835 2.36639 11.171C2.27751 10.9584 2.23174 10.7304 2.23174 10.5C2.23174 10.2697 2.27751 10.0416 2.36639 9.82906C2.45527 9.61654 2.58548 9.42379 2.74948 9.26201L9.50248 2.50901C9.66435 2.34506 9.85709 2.21478 10.0696 2.12571C10.2821 2.03663 10.5101 1.99051 10.7405 1.99001V1.99101ZM12.9205 7.50201C12.7346 7.51969 12.5621 7.60603 12.4365 7.74418C12.3109 7.88232 12.2414 8.06233 12.2415 8.24901V8.99901H10.4905C9.76184 9.00217 9.06395 9.29302 8.54872 9.80825C8.03349 10.3235 7.74264 11.0214 7.73948 11.75V13.75C7.73948 13.8485 7.75888 13.946 7.79657 14.037C7.83426 14.128 7.8895 14.2107 7.95915 14.2803C8.02879 14.35 8.11147 14.4052 8.20247 14.4429C8.29346 14.4806 8.39099 14.5 8.48948 14.5C8.58797 14.5 8.6855 14.4806 8.77649 14.4429C8.86749 14.4052 8.95016 14.35 9.01981 14.2803C9.08945 14.2107 9.1447 14.128 9.18239 14.037C9.22008 13.946 9.23948 13.8485 9.23948 13.75V11.75C9.23814 11.5854 9.2696 11.4222 9.33201 11.2699C9.39442 11.1175 9.48653 10.9792 9.60298 10.8628C9.71942 10.7464 9.85787 10.6544 10.0102 10.5922C10.1626 10.5299 10.3259 10.4985 10.4905 10.5H12.2415V11.25C12.2412 11.3985 12.2851 11.5438 12.3674 11.6674C12.4498 11.791 12.5671 11.8873 12.7043 11.9442C12.8415 12.0011 12.9925 12.0159 13.1382 11.9869C13.2838 11.9578 13.4176 11.8862 13.5225 11.781L15.0225 10.281C15.0922 10.2114 15.1475 10.1287 15.1852 10.0376C15.2229 9.94661 15.2423 9.84905 15.2423 9.75051C15.2423 9.65198 15.2229 9.55442 15.1852 9.46339C15.1475 9.37236 15.0922 9.28966 15.0225 9.22001L13.5225 7.72001C13.4445 7.64132 13.3501 7.58087 13.246 7.54301C13.1419 7.50514 13.0308 7.4908 12.9205 7.50101V7.50201Z" fill="black"/>
</svg>
