<svg width="24" height="24" viewBox="0 0 24 24" fill="none" xmlns="http://www.w3.org/2000/svg">
<path d="M8.00234 12C8.00234 9.79094 9.79267 7.99968 12.0018 7.99968C14.2108 7.99968 16.0021 9.79094 16.0021 12C16.0021 14.2091 14.2108 16.0003 12.0018 16.0003C9.79267 16.0003 8.00234 14.2091 8.00234 12ZM5.83981 12C5.83981 15.4032 8.59851 18.1619 12.0018 18.1619C15.405 18.1619 18.1637 15.4032 18.1637 12C18.1637 8.5968 15.405 5.83814 12.0018 5.83814C8.59851 5.83814 5.83981 8.5968 5.83981 12ZM16.9676 5.59382C16.9675 5.87863 17.0518 6.15707 17.21 6.39394C17.3681 6.63081 17.5929 6.81547 17.856 6.92457C18.1191 7.03366 18.4086 7.06229 18.688 7.00684C18.9674 6.95139 19.224 6.81435 19.4255 6.61304C19.627 6.41173 19.7642 6.15521 19.8199 5.8759C19.8756 5.59658 19.8471 5.30704 19.7383 5.04387C19.6294 4.7807 19.4449 4.55573 19.2081 4.3974C18.9714 4.23908 18.693 4.15451 18.4082 4.1544H18.4076C18.0259 4.15458 17.6598 4.30627 17.3898 4.57616C17.1198 4.84605 16.9679 5.21207 16.9676 5.59382ZM7.15369 21.7677C5.98372 21.7144 5.34781 21.5196 4.92521 21.3549C4.36494 21.1368 3.96519 20.877 3.5449 20.4573C3.12461 20.0376 2.86444 19.6382 2.64729 19.078C2.48255 18.6556 2.28767 18.0195 2.23448 16.8495C2.17631 15.5846 2.16469 15.2047 2.16469 12.0001C2.16469 8.79552 2.17727 8.41661 2.23448 7.15066C2.28776 5.9807 2.48409 5.34586 2.64729 4.92221C2.8654 4.36195 3.12518 3.96221 3.5449 3.54192C3.96462 3.12163 4.36398 2.86147 4.92521 2.64432C5.34761 2.47958 5.98372 2.2847 7.15369 2.23152C8.4186 2.17334 8.79858 2.16173 12.0018 2.16173C15.2049 2.16173 15.5853 2.1743 16.8513 2.23152C18.0212 2.2848 18.6561 2.48112 19.0797 2.64432C19.64 2.86147 20.0398 3.12221 20.4601 3.54192C20.8803 3.96163 21.1395 4.36195 21.3577 4.92221C21.5224 5.34461 21.7173 5.9807 21.7705 7.15066C21.8286 8.41661 21.8403 8.79552 21.8403 12.0001C21.8403 15.2047 21.8286 15.5836 21.7705 16.8495C21.7172 18.0195 21.5213 18.6554 21.3577 19.078C21.1395 19.6382 20.8798 20.038 20.4601 20.4573C20.0403 20.8766 19.64 21.1368 19.0797 21.3549C18.6573 21.5196 18.0212 21.7145 16.8513 21.7677C15.5864 21.8259 15.2064 21.8375 12.0018 21.8375C8.79714 21.8375 8.41822 21.8259 7.15369 21.7677ZM7.05433 0.072672C5.77684 0.130848 4.9039 0.333408 4.14155 0.630048C3.35203 0.936384 2.68367 1.34736 2.01579 2.01418C1.34791 2.68099 0.937984 3.3504 0.631644 4.1399C0.335 4.90272 0.132437 5.77517 0.0742599 7.05264C0.0151231 8.33213 0.00158691 8.74118 0.00158691 12C0.00158691 15.2588 0.0151231 15.6679 0.0742599 16.9474C0.132437 18.2249 0.335 19.0973 0.631644 19.8601C0.937984 20.6491 1.34801 21.3193 2.01579 21.9858C2.68358 22.6524 3.35203 23.0628 4.14155 23.37C4.90534 23.6666 5.77684 23.8692 7.05433 23.9273C8.33451 23.9855 8.74289 24 12.0018 24C15.2606 24 15.6697 23.9865 16.9492 23.9273C18.2268 23.8692 19.0991 23.6666 19.862 23.37C20.651 23.0628 21.3198 22.6526 21.9877 21.9858C22.6556 21.319 23.0647 20.6491 23.3719 19.8601C23.6685 19.0973 23.872 18.2248 23.9293 16.9474C23.9874 15.6669 24.001 15.2588 24.001 12C24.001 8.74118 23.9874 8.33213 23.9293 7.05264C23.8711 5.77507 23.6685 4.90224 23.3719 4.1399C23.0647 3.35088 22.6545 2.68205 21.9877 2.01418C21.3209 1.3463 20.651 0.936384 19.8629 0.630048C19.0991 0.333408 18.2267 0.129888 16.9501 0.072672C15.6706 0.014496 15.2616 0 12.0027 0C8.74385 0 8.33451 0.013536 7.05433 0.072672Z" fill="url(#paint0_radial)"/>
<defs>
<radialGradient id="paint0_radial" cx="0" cy="0" r="1" gradientUnits="userSpaceOnUse" gradientTransform="translate(14.5567 25.1886) scale(24.6927 24.6924)">
<stop offset="0.64" stop-color="#8C3AAA" stop-opacity="0"/>
<stop offset="1" stop-color="#8C3AAA"/>
</radialGradient>
</defs>
</svg>
