<svg width="42" height="66" viewBox="0 0 42 66" fill="none" xmlns="http://www.w3.org/2000/svg">
<path d="M16.2565 59.3418C16.1334 60.3945 15.7438 61.208 15.0875 61.7822C14.4358 62.3519 13.5677 62.6367 12.483 62.6367C11.3073 62.6367 10.3639 62.2152 9.65295 61.3721C8.94657 60.529 8.59338 59.401 8.59338 57.9883V57.0312C8.59338 56.1061 8.75745 55.2926 9.08557 54.5908C9.41825 53.889 9.88765 53.3512 10.4938 52.9775C11.0999 52.5993 11.8017 52.4102 12.5992 52.4102C13.6565 52.4102 14.5042 52.7064 15.1422 53.2988C15.7802 53.8867 16.1517 54.7025 16.2565 55.7461H14.9371C14.8232 54.9531 14.5748 54.3789 14.192 54.0234C13.8138 53.668 13.2828 53.4902 12.5992 53.4902C11.7607 53.4902 11.1022 53.8001 10.6237 54.4199C10.1497 55.0397 9.91272 55.9215 9.91272 57.0654V58.0293C9.91272 59.1094 10.1383 59.9684 10.5895 60.6064C11.0406 61.2445 11.6718 61.5635 12.483 61.5635C13.2122 61.5635 13.7705 61.3994 14.1578 61.0713C14.5498 60.7386 14.8095 60.1621 14.9371 59.3418H16.2565ZM22.4225 62.5C22.3496 62.3542 22.2903 62.0944 22.2448 61.7207C21.6569 62.3314 20.955 62.6367 20.1393 62.6367C19.4101 62.6367 18.8108 62.4316 18.3414 62.0215C17.8766 61.6068 17.6442 61.0827 17.6442 60.4492C17.6442 59.679 17.9358 59.082 18.5192 58.6582C19.1071 58.2298 19.9319 58.0156 20.9938 58.0156H22.2242V57.4346C22.2242 56.9925 22.0921 56.6416 21.8278 56.3818C21.5634 56.1175 21.1738 55.9854 20.6588 55.9854C20.2076 55.9854 19.8294 56.0993 19.524 56.3271C19.2187 56.555 19.066 56.8307 19.066 57.1543H17.7946C17.7946 56.7852 17.9244 56.4297 18.1842 56.0879C18.4485 55.7415 18.804 55.4681 19.2506 55.2676C19.7018 55.0671 20.1962 54.9668 20.734 54.9668C21.5862 54.9668 22.2539 55.181 22.7369 55.6094C23.22 56.0332 23.4707 56.6188 23.4889 57.3662V60.7705C23.4889 61.4495 23.5755 61.9896 23.7487 62.3906V62.5H22.4225ZM20.3239 61.5361C20.7203 61.5361 21.0963 61.4336 21.4518 61.2285C21.8073 61.0234 22.0647 60.7568 22.2242 60.4287V58.9111H21.233C19.6836 58.9111 18.9088 59.3646 18.9088 60.2715C18.9088 60.668 19.041 60.9779 19.3053 61.2012C19.5696 61.4245 19.9091 61.5361 20.3239 61.5361ZM26.8453 62.5H25.5807V52H26.8453V62.5ZM30.2496 62.5H28.985V52H30.2496V62.5Z" fill="#666666"/>
<path d="M20.6666 41C31.9885 41 41.1666 31.8218 41.1666 20.5C41.1666 9.17816 31.9885 0 20.6666 0C9.34479 0 0.166626 9.17816 0.166626 20.5C0.166626 31.8218 9.34479 41 20.6666 41Z" fill="#F4B54B"/>
<path d="M23.9977 30.502C23.6705 30.4982 23.3452 30.4525 23.0297 30.366C20.1967 29.591 17.6907 27.217 15.4897 23.48C13.2887 19.743 12.4387 16.411 13.1797 13.602C13.3473 12.9782 13.6726 12.408 14.1242 11.9462C14.5759 11.4844 15.1387 11.1465 15.7587 10.965L16.9427 10.614C17.5844 10.423 18.2733 10.4687 18.8841 10.7429C19.495 11.0171 19.987 11.5016 20.2707 12.108L21.1867 14.108C21.4246 14.6314 21.4906 15.2167 21.3752 15.7799C21.2599 16.3431 20.9692 16.8553 20.5447 17.243L19.0277 18.63C18.9842 18.6689 18.9561 18.7221 18.9487 18.78C18.924 18.9419 18.9423 19.1074 19.0017 19.26C19.1898 19.8749 19.4588 20.462 19.8017 21.006C20.1286 21.6065 20.5417 22.156 21.0277 22.637C21.2057 22.791 21.4077 22.907 21.4947 22.882L23.5307 22.272C24.0821 22.1059 24.6712 22.1139 25.2179 22.2948C25.7646 22.4757 26.2422 22.8208 26.5857 23.283L27.8857 25.049C28.2783 25.5875 28.46 26.2511 28.3965 26.9145C28.3329 27.5779 28.0284 28.1949 27.5407 28.649L26.6407 29.485C26.163 29.9269 25.5802 30.2391 24.9477 30.392C24.6368 30.4679 24.3177 30.5049 23.9977 30.502ZM24.0147 29.002C24.2117 29.0035 24.4082 28.9807 24.5997 28.934C24.9833 28.8421 25.3371 28.6538 25.6277 28.387L26.5277 27.552C26.7489 27.3505 26.8873 27.0739 26.9162 26.7761C26.945 26.4782 26.8621 26.1802 26.6837 25.94L25.3837 24.174C25.2236 23.9606 25.0018 23.8017 24.7483 23.7187C24.4948 23.6357 24.2219 23.6326 23.9667 23.71L21.9187 24.318C21.5857 24.3953 21.2384 24.3851 20.9105 24.2884C20.5826 24.1917 20.2854 24.0117 20.0477 23.766C19.4336 23.1846 18.9155 22.5095 18.5127 21.766C18.0959 21.1039 17.7716 20.3879 17.5487 19.638C17.4584 19.303 17.4276 18.9547 17.4577 18.609C17.5061 18.1911 17.7039 17.8047 18.0147 17.521L19.5317 16.132C19.724 15.9608 19.8561 15.7322 19.9085 15.4801C19.9609 15.228 19.9308 14.9657 19.8227 14.732L18.9077 12.732C18.7737 12.4543 18.5454 12.2332 18.2635 12.1083C17.9816 11.9834 17.6644 11.9627 17.3687 12.05L16.1847 12.402C15.8127 12.5117 15.4747 12.7143 15.2026 12.9907C14.9306 13.2671 14.7334 13.6083 14.6297 13.982C14.0377 16.227 14.6917 19.163 16.7827 22.714C18.8737 26.265 21.1357 28.289 23.4257 28.914C23.6187 28.9691 23.818 28.9987 24.0187 29.002H24.0147Z" fill="black"/>
</svg>
