<svg width="58" height="66" viewBox="0 0 58 66" fill="none" xmlns="http://www.w3.org/2000/svg">
<path d="M3.35059 52.5469L6.60449 60.668L9.8584 52.5469H11.5605V62.5H10.248V58.624L10.3711 54.4404L7.10352 62.5H6.09863L2.83789 54.4609L2.96777 58.624V62.5H1.65527V52.5469H3.35059ZM16.749 62.6367C15.7464 62.6367 14.9307 62.3086 14.3018 61.6523C13.6729 60.9915 13.3584 60.1097 13.3584 59.0068V58.7744C13.3584 58.0407 13.4974 57.3867 13.7754 56.8125C14.0579 56.2337 14.4499 55.7826 14.9512 55.459C15.457 55.1309 16.0039 54.9668 16.5918 54.9668C17.5534 54.9668 18.3008 55.2835 18.834 55.917C19.3672 56.5505 19.6338 57.4574 19.6338 58.6377V59.1641H14.623C14.6413 59.8932 14.8532 60.4834 15.2588 60.9346C15.6689 61.3812 16.1885 61.6045 16.8174 61.6045C17.264 61.6045 17.6423 61.5133 17.9521 61.3311C18.262 61.1488 18.5332 60.9072 18.7656 60.6064L19.5381 61.208C18.9183 62.1605 17.9886 62.6367 16.749 62.6367ZM16.5918 56.0059C16.0814 56.0059 15.653 56.1927 15.3066 56.5664C14.9603 56.9355 14.7461 57.4551 14.6641 58.125H18.3691V58.0293C18.3327 57.3867 18.1595 56.89 17.8496 56.5391C17.5397 56.1836 17.1204 56.0059 16.5918 56.0059ZM25.4102 60.5381C25.4102 60.1963 25.2803 59.932 25.0205 59.7451C24.7653 59.5537 24.3164 59.3896 23.6738 59.2529C23.0358 59.1162 22.5277 58.9521 22.1494 58.7607C21.7757 58.5693 21.4977 58.3415 21.3154 58.0771C21.1377 57.8128 21.0488 57.4984 21.0488 57.1338C21.0488 56.5277 21.304 56.015 21.8145 55.5957C22.3294 55.1764 22.9857 54.9668 23.7832 54.9668C24.6217 54.9668 25.3008 55.1833 25.8203 55.6162C26.3444 56.0492 26.6064 56.6029 26.6064 57.2773H25.335C25.335 56.931 25.1868 56.6325 24.8906 56.3818C24.599 56.1312 24.2298 56.0059 23.7832 56.0059C23.3229 56.0059 22.9629 56.1061 22.7031 56.3066C22.4434 56.5072 22.3135 56.7692 22.3135 57.0928C22.3135 57.3981 22.4342 57.6283 22.6758 57.7832C22.9173 57.9382 23.3525 58.0863 23.9814 58.2275C24.6149 58.3688 25.1276 58.5374 25.5195 58.7334C25.9115 58.9294 26.2008 59.1663 26.3877 59.4443C26.5791 59.7178 26.6748 60.0527 26.6748 60.4492C26.6748 61.11 26.4105 61.641 25.8818 62.042C25.3532 62.4385 24.6673 62.6367 23.8242 62.6367C23.2318 62.6367 22.7077 62.5319 22.252 62.3223C21.7962 62.1126 21.4385 61.821 21.1787 61.4473C20.9235 61.069 20.7959 60.6611 20.7959 60.2236H22.0605C22.0833 60.6475 22.252 60.9847 22.5664 61.2354C22.8854 61.4814 23.3047 61.6045 23.8242 61.6045C24.3027 61.6045 24.6855 61.5088 24.9727 61.3174C25.2643 61.1214 25.4102 60.8617 25.4102 60.5381ZM32.6289 60.5381C32.6289 60.1963 32.499 59.932 32.2393 59.7451C31.984 59.5537 31.5352 59.3896 30.8926 59.2529C30.2546 59.1162 29.7464 58.9521 29.3682 58.7607C28.9945 58.5693 28.7165 58.3415 28.5342 58.0771C28.3564 57.8128 28.2676 57.4984 28.2676 57.1338C28.2676 56.5277 28.5228 56.015 29.0332 55.5957C29.5482 55.1764 30.2044 54.9668 31.002 54.9668C31.8405 54.9668 32.5195 55.1833 33.0391 55.6162C33.5632 56.0492 33.8252 56.6029 33.8252 57.2773H32.5537C32.5537 56.931 32.4056 56.6325 32.1094 56.3818C31.8177 56.1312 31.4486 56.0059 31.002 56.0059C30.5417 56.0059 30.1816 56.1061 29.9219 56.3066C29.6621 56.5072 29.5322 56.7692 29.5322 57.0928C29.5322 57.3981 29.653 57.6283 29.8945 57.7832C30.1361 57.9382 30.5713 58.0863 31.2002 58.2275C31.8337 58.3688 32.3464 58.5374 32.7383 58.7334C33.1302 58.9294 33.4196 59.1663 33.6064 59.4443C33.7979 59.7178 33.8936 60.0527 33.8936 60.4492C33.8936 61.11 33.6292 61.641 33.1006 62.042C32.5719 62.4385 31.8861 62.6367 31.043 62.6367C30.4505 62.6367 29.9264 62.5319 29.4707 62.3223C29.015 62.1126 28.6572 61.821 28.3975 61.4473C28.1423 61.069 28.0146 60.6611 28.0146 60.2236H29.2793C29.3021 60.6475 29.4707 60.9847 29.7852 61.2354C30.1042 61.4814 30.5234 61.6045 31.043 61.6045C31.5215 61.6045 31.9043 61.5088 32.1914 61.3174C32.4831 61.1214 32.6289 60.8617 32.6289 60.5381ZM40.1074 62.5C40.0345 62.3542 39.9753 62.0944 39.9297 61.7207C39.3418 62.3314 38.64 62.6367 37.8242 62.6367C37.0951 62.6367 36.4958 62.4316 36.0264 62.0215C35.5615 61.6068 35.3291 61.0827 35.3291 60.4492C35.3291 59.679 35.6208 59.082 36.2041 58.6582C36.792 58.2298 37.6169 58.0156 38.6787 58.0156H39.9092V57.4346C39.9092 56.9925 39.777 56.6416 39.5127 56.3818C39.2484 56.1175 38.8587 55.9854 38.3438 55.9854C37.8926 55.9854 37.5143 56.0993 37.209 56.3271C36.9036 56.555 36.751 56.8307 36.751 57.1543H35.4795C35.4795 56.7852 35.6094 56.4297 35.8691 56.0879C36.1335 55.7415 36.4889 55.4681 36.9355 55.2676C37.3867 55.0671 37.8812 54.9668 38.4189 54.9668C39.2712 54.9668 39.9388 55.181 40.4219 55.6094C40.9049 56.0332 41.1556 56.6188 41.1738 57.3662V60.7705C41.1738 61.4495 41.2604 61.9896 41.4336 62.3906V62.5H40.1074ZM38.0088 61.5361C38.4053 61.5361 38.7812 61.4336 39.1367 61.2285C39.4922 61.0234 39.7497 60.7568 39.9092 60.4287V58.9111H38.918C37.3685 58.9111 36.5938 59.3646 36.5938 60.2715C36.5938 60.668 36.7259 60.9779 36.9902 61.2012C37.2546 61.4245 37.5941 61.5361 38.0088 61.5361ZM42.8555 58.7402C42.8555 57.5872 43.1221 56.6712 43.6553 55.9922C44.1885 55.3086 44.8949 54.9668 45.7744 54.9668C46.6768 54.9668 47.3809 55.2858 47.8867 55.9238L47.9482 55.1035H49.1035V62.3223C49.1035 63.2793 48.8187 64.0335 48.249 64.585C47.6839 65.1364 46.9229 65.4121 45.9658 65.4121C45.4326 65.4121 44.9108 65.2982 44.4004 65.0703C43.89 64.8424 43.5003 64.5303 43.2314 64.1338L43.8877 63.375C44.43 64.0449 45.0931 64.3799 45.877 64.3799C46.4922 64.3799 46.9707 64.2067 47.3125 63.8604C47.6589 63.514 47.832 63.0264 47.832 62.3975V61.7617C47.3262 62.3451 46.6357 62.6367 45.7607 62.6367C44.8949 62.6367 44.193 62.2881 43.6553 61.5908C43.1221 60.8936 42.8555 59.9434 42.8555 58.7402ZM44.127 58.8838C44.127 59.7178 44.2979 60.374 44.6396 60.8525C44.9814 61.3265 45.46 61.5635 46.0752 61.5635C46.8727 61.5635 47.4583 61.2012 47.832 60.4766V57.0996C47.4447 56.3932 46.8636 56.04 46.0889 56.04C45.4736 56.04 44.9928 56.2793 44.6465 56.7578C44.3001 57.2363 44.127 57.945 44.127 58.8838ZM54.0869 62.6367C53.0843 62.6367 52.2686 62.3086 51.6396 61.6523C51.0107 60.9915 50.6963 60.1097 50.6963 59.0068V58.7744C50.6963 58.0407 50.8353 57.3867 51.1133 56.8125C51.3958 56.2337 51.7878 55.7826 52.2891 55.459C52.7949 55.1309 53.3418 54.9668 53.9297 54.9668C54.8913 54.9668 55.6387 55.2835 56.1719 55.917C56.7051 56.5505 56.9717 57.4574 56.9717 58.6377V59.1641H51.9609C51.9792 59.8932 52.1911 60.4834 52.5967 60.9346C53.0068 61.3812 53.5264 61.6045 54.1553 61.6045C54.6019 61.6045 54.9801 61.5133 55.29 61.3311C55.5999 61.1488 55.8711 60.9072 56.1035 60.6064L56.876 61.208C56.2562 62.1605 55.3265 62.6367 54.0869 62.6367ZM53.9297 56.0059C53.4193 56.0059 52.9909 56.1927 52.6445 56.5664C52.2982 56.9355 52.084 57.4551 52.002 58.125H55.707V58.0293C55.6706 57.3867 55.4974 56.89 55.1875 56.5391C54.8776 56.1836 54.4583 56.0059 53.9297 56.0059Z" fill="#666666"/>
<path d="M30.9219 41C42.2437 41 51.4219 31.8218 51.4219 20.5C51.4219 9.17816 42.2437 0 30.9219 0C19.6 0 10.4219 9.17816 10.4219 20.5C10.4219 31.8218 19.6 41 30.9219 41Z" fill="#F5B64C"/>
<path d="M24.1719 11.009C23.3109 11.0121 22.4861 11.3556 21.8773 11.9644C21.2685 12.5732 20.925 13.398 20.9219 14.259V22.759C20.925 23.62 21.2685 24.4448 21.8773 25.0536C22.4861 25.6624 23.3109 26.0058 24.1719 26.009H24.9219V28.759C24.9315 28.987 25.0019 29.2083 25.126 29.3998C25.25 29.5914 25.4231 29.7463 25.6272 29.8483C25.8313 29.9504 26.0591 29.9959 26.2867 29.9802C26.5144 29.9645 26.7337 29.8881 26.9219 29.759L31.9219 26.009H37.6719C38.5329 26.0058 39.3577 25.6624 39.9665 25.0536C40.5753 24.4448 40.9187 23.62 40.9219 22.759V14.259C40.9187 13.398 40.5753 12.5732 39.9665 11.9644C39.3577 11.3556 38.5329 11.0121 37.6719 11.009H24.1719ZM24.1719 12.509H37.6719C37.9021 12.5075 38.1303 12.5518 38.3433 12.6392C38.5563 12.7266 38.7498 12.8555 38.9126 13.0183C39.0754 13.1811 39.2042 13.3746 39.2916 13.5876C39.3791 13.8005 39.4233 14.0288 39.4219 14.259V22.759C39.4233 22.9892 39.3791 23.2174 39.2916 23.4304C39.2042 23.6434 39.0754 23.8369 38.9126 23.9997C38.7498 24.1625 38.5563 24.2913 38.3433 24.3787C38.1303 24.4662 37.9021 24.5104 37.6719 24.509H31.6719C31.5096 24.509 31.3517 24.5616 31.2219 24.659L26.4219 28.259V25.259C26.4219 25.0601 26.3429 24.8693 26.2022 24.7286C26.0616 24.588 25.8708 24.509 25.6719 24.509H24.1719C23.9417 24.5104 23.7134 24.4662 23.5005 24.3787C23.2875 24.2913 23.094 24.1625 22.9312 23.9997C22.7684 23.8369 22.6395 23.6434 22.5521 23.4304C22.4647 23.2174 22.4204 22.9892 22.4219 22.759V14.259C22.4204 14.0288 22.4647 13.8005 22.5521 13.5876C22.6395 13.3746 22.7684 13.1811 22.9312 13.0183C23.094 12.8555 23.2875 12.7266 23.5005 12.6392C23.7134 12.5518 23.9417 12.5075 24.1719 12.509ZM27.4219 17.509C27.2241 17.509 27.0308 17.5676 26.8663 17.6775C26.7019 17.7874 26.5737 17.9436 26.498 18.1263C26.4223 18.309 26.4025 18.5101 26.4411 18.7041C26.4797 18.898 26.5749 19.0762 26.7148 19.2161C26.8546 19.3559 27.0328 19.4512 27.2268 19.4898C27.4208 19.5283 27.6218 19.5085 27.8046 19.4329C27.9873 19.3572 28.1435 19.229 28.2533 19.0645C28.3632 18.9001 28.4219 18.7068 28.4219 18.509C28.4219 18.2438 28.3165 17.9894 28.129 17.8019C27.9414 17.6143 27.6871 17.509 27.4219 17.509ZM30.9219 17.509C30.7241 17.509 30.5308 17.5676 30.3663 17.6775C30.2019 17.7874 30.0737 17.9436 29.998 18.1263C29.9223 18.309 29.9025 18.5101 29.9411 18.7041C29.9797 18.898 30.0749 19.0762 30.2148 19.2161C30.3546 19.3559 30.5328 19.4512 30.7268 19.4898C30.9208 19.5283 31.1218 19.5085 31.3046 19.4329C31.4873 19.3572 31.6435 19.229 31.7533 19.0645C31.8632 18.9001 31.9219 18.7068 31.9219 18.509C31.9219 18.2438 31.8165 17.9894 31.629 17.8019C31.4414 17.6143 31.1871 17.509 30.9219 17.509ZM34.4219 17.509C34.2241 17.509 34.0308 17.5676 33.8663 17.6775C33.7019 17.7874 33.5737 17.9436 33.498 18.1263C33.4223 18.309 33.4025 18.5101 33.4411 18.7041C33.4797 18.898 33.5749 19.0762 33.7148 19.2161C33.8546 19.3559 34.0328 19.4512 34.2268 19.4898C34.4208 19.5283 34.6218 19.5085 34.8046 19.4329C34.9873 19.3572 35.1435 19.229 35.2533 19.0645C35.3632 18.9001 35.4219 18.7068 35.4219 18.509C35.4219 18.2438 35.3165 17.9894 35.129 17.8019C34.9414 17.6143 34.6871 17.509 34.4219 17.509Z" fill="black"/>
</svg>
