<svg width="57" height="66" viewBox="0 0 57 66" fill="none" xmlns="http://www.w3.org/2000/svg">
<path d="M1.48853 62.5V52.5469H4.2981C5.16398 52.5469 5.92961 52.7383 6.59497 53.1211C7.26034 53.5039 7.77303 54.0485 8.13306 54.7549C8.49764 55.4613 8.68221 56.2725 8.68677 57.1885V57.8242C8.68677 58.763 8.50448 59.5856 8.13989 60.292C7.77987 60.9984 7.26261 61.5407 6.58813 61.9189C5.91821 62.2972 5.13664 62.4909 4.24341 62.5H1.48853ZM2.80103 53.627V61.4268H4.18188C5.1936 61.4268 5.97974 61.1123 6.54028 60.4834C7.10539 59.8545 7.38794 58.959 7.38794 57.7969V57.2158C7.38794 56.0856 7.12134 55.2083 6.58813 54.584C6.05949 53.9551 5.30754 53.6361 4.33228 53.627H2.80103ZM11.8518 62.5H10.5872V55.1035H11.8518V62.5ZM10.4846 53.1416C10.4846 52.9365 10.5461 52.7633 10.6692 52.6221C10.7968 52.4808 10.9836 52.4102 11.2297 52.4102C11.4758 52.4102 11.6627 52.4808 11.7903 52.6221C11.9179 52.7633 11.9817 52.9365 11.9817 53.1416C11.9817 53.3467 11.9179 53.5176 11.7903 53.6543C11.6627 53.791 11.4758 53.8594 11.2297 53.8594C10.9836 53.8594 10.7968 53.791 10.6692 53.6543C10.5461 53.5176 10.4846 53.3467 10.4846 53.1416ZM17.4573 56.2383C17.2659 56.2064 17.0585 56.1904 16.8352 56.1904C16.0058 56.1904 15.443 56.5436 15.1467 57.25V62.5H13.8821V55.1035H15.1125L15.1331 55.958C15.5478 55.2972 16.1357 54.9668 16.8967 54.9668C17.1428 54.9668 17.3297 54.9987 17.4573 55.0625V56.2383ZM21.5588 62.6367C20.5562 62.6367 19.7405 62.3086 19.1116 61.6523C18.4827 60.9915 18.1682 60.1097 18.1682 59.0068V58.7744C18.1682 58.0407 18.3072 57.3867 18.5852 56.8125C18.8678 56.2337 19.2597 55.7826 19.761 55.459C20.2668 55.1309 20.8137 54.9668 21.4016 54.9668C22.3632 54.9668 23.1106 55.2835 23.6438 55.917C24.177 56.5505 24.4436 57.4574 24.4436 58.6377V59.1641H19.4329C19.4511 59.8932 19.663 60.4834 20.0686 60.9346C20.4788 61.3812 20.9983 61.6045 21.6272 61.6045C22.0738 61.6045 22.4521 61.5133 22.762 61.3311C23.0719 61.1488 23.343 60.9072 23.5754 60.6064L24.3479 61.208C23.7281 62.1605 22.7984 62.6367 21.5588 62.6367ZM21.4016 56.0059C20.8912 56.0059 20.4628 56.1927 20.1165 56.5664C19.7701 56.9355 19.5559 57.4551 19.4739 58.125H23.179V58.0293C23.1425 57.3867 22.9693 56.89 22.6594 56.5391C22.3495 56.1836 21.9303 56.0059 21.4016 56.0059ZM28.8801 61.6045C29.3313 61.6045 29.7255 61.4678 30.0627 61.1943C30.4 60.9209 30.5868 60.5791 30.6233 60.1689H31.8196C31.7968 60.5928 31.651 60.9961 31.3821 61.3789C31.1132 61.7617 30.7532 62.0671 30.302 62.2949C29.8554 62.5228 29.3814 62.6367 28.8801 62.6367C27.873 62.6367 27.0709 62.3018 26.4739 61.6318C25.8814 60.9574 25.5852 60.0368 25.5852 58.8701V58.6582C25.5852 57.9382 25.7174 57.2979 25.9817 56.7373C26.246 56.1768 26.6243 55.7415 27.1165 55.4316C27.6132 55.1217 28.1988 54.9668 28.8733 54.9668C29.7027 54.9668 30.3909 55.2152 30.9377 55.7119C31.4892 56.2087 31.7831 56.8535 31.8196 57.6465H30.6233C30.5868 57.168 30.4045 56.776 30.0764 56.4707C29.7528 56.1608 29.3518 56.0059 28.8733 56.0059C28.2307 56.0059 27.7317 56.2383 27.3762 56.7031C27.0253 57.1634 26.8499 57.8311 26.8499 58.7061V58.9453C26.8499 59.7975 27.0253 60.4538 27.3762 60.9141C27.7271 61.3743 28.2284 61.6045 28.8801 61.6045ZM34.9573 53.3125V55.1035H36.3381V56.0811H34.9573V60.668C34.9573 60.9642 35.0188 61.1875 35.1418 61.3379C35.2649 61.4837 35.4745 61.5566 35.7708 61.5566C35.9166 61.5566 36.1171 61.5293 36.3723 61.4746V62.5C36.0396 62.5911 35.7161 62.6367 35.4016 62.6367C34.8365 62.6367 34.4104 62.4658 34.1233 62.124C33.8362 61.7822 33.6926 61.2969 33.6926 60.668V56.0811H32.3459V55.1035H33.6926V53.3125H34.9573ZM39.1956 62.5H37.9309V55.1035H39.1956V62.5ZM37.8284 53.1416C37.8284 52.9365 37.8899 52.7633 38.0129 52.6221C38.1405 52.4808 38.3274 52.4102 38.5735 52.4102C38.8196 52.4102 39.0064 52.4808 39.134 52.6221C39.2616 52.7633 39.3254 52.9365 39.3254 53.1416C39.3254 53.3467 39.2616 53.5176 39.134 53.6543C39.0064 53.791 38.8196 53.8594 38.5735 53.8594C38.3274 53.8594 38.1405 53.791 38.0129 53.6543C37.8899 53.5176 37.8284 53.3467 37.8284 53.1416ZM40.8909 58.7334C40.8909 58.0088 41.0321 57.3571 41.3147 56.7783C41.6018 56.1995 41.9983 55.7529 42.5042 55.4385C43.0146 55.124 43.5956 54.9668 44.2473 54.9668C45.2545 54.9668 46.068 55.3154 46.6877 56.0127C47.3121 56.71 47.6243 57.6374 47.6243 58.7949V58.8838C47.6243 59.6038 47.4853 60.251 47.2073 60.8252C46.9338 61.3949 46.5396 61.8392 46.0247 62.1582C45.5142 62.4772 44.9264 62.6367 44.261 62.6367C43.2584 62.6367 42.4449 62.2881 41.8206 61.5908C41.2008 60.8936 40.8909 59.9707 40.8909 58.8223V58.7334ZM42.1624 58.8838C42.1624 59.7041 42.3515 60.3626 42.7297 60.8594C43.1125 61.3561 43.623 61.6045 44.261 61.6045C44.9036 61.6045 45.414 61.3538 45.7922 60.8525C46.1705 60.3467 46.3596 59.6403 46.3596 58.7334C46.3596 57.9222 46.1659 57.266 45.7786 56.7646C45.3958 56.2588 44.8853 56.0059 44.2473 56.0059C43.623 56.0059 43.1194 56.2542 42.7366 56.751C42.3538 57.2477 42.1624 57.9587 42.1624 58.8838ZM50.4065 55.1035L50.4475 56.0332C51.0126 55.3223 51.7509 54.9668 52.6624 54.9668C54.2255 54.9668 55.0139 55.8486 55.0276 57.6123V62.5H53.7629V57.6055C53.7584 57.0723 53.6353 56.6781 53.3938 56.4229C53.1568 56.1676 52.7854 56.04 52.2795 56.04C51.8694 56.04 51.5094 56.1494 51.1995 56.3682C50.8896 56.5869 50.648 56.874 50.4749 57.2295V62.5H49.2102V55.1035H50.4065Z" fill="#666666"/>
<path d="M29.7405 41C41.0623 41 50.2405 31.8218 50.2405 20.5C50.2405 9.17816 41.0623 0 29.7405 0C18.4186 0 9.24048 9.17816 9.24048 20.5C9.24048 31.8218 18.4186 41 29.7405 41Z" fill="#F5B64C"/>
<path d="M29.7405 10.5C29.3136 10.4988 28.8906 10.5819 28.4959 10.7445C28.1012 10.9072 27.7425 11.1463 27.4405 11.448L20.6885 18.201C20.0808 18.8122 19.7396 19.6391 19.7396 20.501C19.7396 21.3629 20.0808 22.1898 20.6885 22.801L27.4415 29.554C28.0527 30.1617 28.8796 30.5029 29.7415 30.5029C30.6034 30.5029 31.4303 30.1617 32.0415 29.554L38.7925 22.801C39.4002 22.1898 39.7413 21.3629 39.7413 20.501C39.7413 19.6391 39.4002 18.8122 38.7925 18.201L32.0395 11.447C31.7375 11.1456 31.3789 10.9068 30.9844 10.7443C30.5899 10.5818 30.1672 10.4988 29.7405 10.5ZM29.7405 11.991C29.9708 11.9914 30.1988 12.0373 30.4113 12.1262C30.6237 12.2151 30.8165 12.3452 30.9785 12.509L37.7305 19.262C37.8945 19.4238 38.0247 19.6165 38.1136 19.8291C38.2024 20.0416 38.2482 20.2697 38.2482 20.5C38.2482 20.7304 38.2024 20.9584 38.1136 21.171C38.0247 21.3835 37.8945 21.5762 37.7305 21.738L30.9785 28.49C30.8167 28.654 30.624 28.7842 30.4114 28.8731C30.1989 28.962 29.9708 29.0078 29.7405 29.0078C29.5101 29.0078 29.2821 28.962 29.0695 28.8731C28.857 28.7842 28.6643 28.654 28.5025 28.49L21.7495 21.738C21.5855 21.5762 21.4553 21.3835 21.3664 21.171C21.2775 20.9584 21.2317 20.7304 21.2317 20.5C21.2317 20.2697 21.2775 20.0416 21.3664 19.8291C21.4553 19.6165 21.5855 19.4238 21.7495 19.262L28.5025 12.509C28.6644 12.3451 28.8571 12.2148 29.0696 12.1257C29.2821 12.0366 29.5101 11.9905 29.7405 11.99V11.991ZM31.9205 17.502C31.7346 17.5197 31.5621 17.606 31.4365 17.7442C31.3109 17.8823 31.2414 18.0623 31.2415 18.249V18.999H29.4905C28.7618 19.0022 28.0639 19.293 27.5487 19.8083C27.0335 20.3235 26.7426 21.0214 26.7395 21.75V23.75C26.7395 23.8485 26.7589 23.946 26.7966 24.037C26.8343 24.128 26.8895 24.2107 26.9591 24.2803C27.0288 24.35 27.1115 24.4052 27.2025 24.4429C27.2935 24.4806 27.391 24.5 27.4895 24.5C27.588 24.5 27.6855 24.4806 27.7765 24.4429C27.8675 24.4052 27.9502 24.35 28.0198 24.2803C28.0895 24.2107 28.1447 24.128 28.1824 24.037C28.2201 23.946 28.2395 23.8485 28.2395 23.75V21.75C28.2381 21.5854 28.2696 21.4222 28.332 21.2699C28.3944 21.1175 28.4865 20.9792 28.603 20.8628C28.7194 20.7464 28.8579 20.6544 29.0102 20.5922C29.1626 20.5299 29.3259 20.4985 29.4905 20.5H31.2415V21.25C31.2412 21.3985 31.2851 21.5438 31.3674 21.6674C31.4498 21.791 31.5671 21.8873 31.7043 21.9442C31.8415 22.0011 31.9925 22.0159 32.1382 21.9869C32.2838 21.9578 32.4176 21.8862 32.5225 21.781L34.0225 20.281C34.0922 20.2114 34.1475 20.1287 34.1852 20.0376C34.2229 19.9466 34.2423 19.849 34.2423 19.7505C34.2423 19.652 34.2229 19.5544 34.1852 19.4634C34.1475 19.3724 34.0922 19.2897 34.0225 19.22L32.5225 17.72C32.4445 17.6413 32.3501 17.5809 32.246 17.543C32.1419 17.5051 32.0308 17.4908 31.9205 17.501V17.502Z" fill="black"/>
</svg>
