<svg width="89" height="42" viewBox="0 0 89 42" fill="none" xmlns="http://www.w3.org/2000/svg">
<path d="M66.651 29.2935C64.4073 27.2971 61.4717 27.2863 58.7907 29.2183C58.4968 29.4297 58.0452 29.4226 57.59 29.5337C57.4322 28.8527 57.3391 28.3724 57.2136 27.9028C56.2064 24.168 52.0164 22.6769 49.0342 24.9852C48.3761 25.4671 47.891 26.1484 47.6507 26.9279C47.5744 27.2285 47.5887 27.5449 47.6917 27.8375C47.7947 28.13 47.9818 28.3856 48.2296 28.5721C48.4774 28.7586 48.7748 28.8677 49.0844 28.8857C49.394 28.9038 49.702 28.8299 49.9698 28.6735C50.1275 28.5803 50.2852 28.4799 50.4465 28.3795C51.8407 27.4978 53.1777 27.8204 53.7834 29.2971C52.6006 29.2971 51.4859 29.2219 50.3855 29.2971C48.1059 29.4799 45.8335 29.7523 43.8764 31.1108C42.3603 32.1646 41.8047 33.7703 42.346 35.4549C42.9374 37.2865 44.2636 38.3833 46.1059 38.2292C47.1812 38.1396 48.2565 37.6342 49.769 37.1862C52.3999 38.3224 54.0702 37.8457 56.6795 34.9352C58.4717 37.3403 60.4825 38.1002 62.565 37.1754C63.5937 36.7166 64.2818 35.8922 64.3033 34.8134C64.3248 33.8133 63.9951 32.8062 63.823 31.8276C65.2281 32.419 65.5901 32.9567 65.5256 34.4119C65.4252 36.5983 64.2066 37.9962 61.8481 38.584C61.1599 38.7489 60.5362 38.8887 60.3929 39.6987C61.0094 41.326 61.7872 41.7418 63.375 41.2364C65.4073 40.5912 67.0632 39.4443 68.1349 37.5446C69.6977 34.8134 69.092 31.4656 66.651 29.2935ZM53.1813 33.6664C51.9196 34.4047 50.8837 33.6162 49.8694 32.9173L48.6902 33.075L48.6687 33.1001C48.597 33.1825 48.5289 33.2685 48.4608 33.351C48.3927 33.4334 48.2708 33.5768 48.174 33.6843C48.131 33.7309 48.088 33.7811 48.0414 33.8277C47.9532 33.9213 47.8586 34.0088 47.7582 34.0893L47.622 34.1933C47.5754 34.2297 47.5249 34.261 47.4715 34.2865C47.2733 34.3745 47.0522 34.3969 46.8404 34.3505C46.6286 34.3041 46.4372 34.1913 46.294 34.0285C46.1508 33.8657 46.0633 33.6614 46.0443 33.4454C46.0253 33.2294 46.0757 33.013 46.1883 32.8277C46.2212 32.7683 46.2609 32.7129 46.3066 32.6628L46.3281 32.6377C46.3733 32.5828 46.4224 32.5313 46.4751 32.4836C46.5315 32.4295 46.5913 32.3792 46.6543 32.333C46.7222 32.2815 46.7928 32.2337 46.8658 32.1897C48.0199 31.4943 52.7297 31.1359 54.1132 31.6377C54.1971 32.0311 54.1517 32.4411 53.9838 32.8066C53.8159 33.1722 53.5344 33.4737 53.1813 33.6664ZM61.0667 34.1825C61.0591 34.2858 61.0292 34.3862 60.979 34.4768C60.9289 34.5674 60.8597 34.6461 60.7762 34.7074C60.6928 34.7687 60.597 34.8112 60.4956 34.832C60.3941 34.8527 60.2894 34.8513 60.1886 34.8277C59.952 34.7524 59.7835 34.5409 59.8696 34.075L59.8911 33.9818C59.8911 33.9818 59.8911 33.9603 59.8911 33.9495C59.9122 33.8627 59.9568 33.7833 60.02 33.7201C60.0833 33.6569 60.1626 33.6122 60.2495 33.5911C60.3223 33.5713 60.399 33.5713 60.4717 33.5911C60.6189 33.6141 60.7554 33.6823 60.862 33.7864C60.9686 33.8904 61.0402 34.0251 61.0667 34.1718V34.1825Z" fill="#723729"/>
<path d="M44.5075 15.3578C45.0636 15.0153 45.4904 14.4981 45.7213 13.8872C45.9522 13.2763 45.9741 12.6061 45.7835 11.9814C45.3068 10.0925 44.0165 9.11398 42.106 8.75555C43.6759 7.33976 46.0022 7.85948 47.0058 9.75557C47.3642 10.4724 47.6043 11.2789 48.081 11.9061C48.4646 12.4402 49.099 13.132 49.6223 13.132C50.1456 13.132 50.7191 12.4151 51.1958 11.9312C51.5043 11.5725 51.7757 11.1834 52.0058 10.7699C52.9091 10.8631 53.1636 11.3147 53.1062 11.9097C52.9664 13.39 51.8768 14.1822 50.927 15.0317C48.8337 14.003 48.1706 13.9779 47.5864 15.1033C47.5441 15.1828 47.5293 15.2741 47.5442 15.3629C47.5591 15.4517 47.6029 15.5331 47.6688 15.5944L48.6975 16.5514C47.7764 17.6804 46.3534 18.3077 45.6545 19.5264C45.5551 19.6956 45.4921 19.8837 45.4695 20.0787C45.4468 20.2737 45.4651 20.4713 45.5231 20.6588C45.5811 20.8463 45.6776 21.0197 45.8064 21.1678C45.9351 21.316 46.0934 21.4356 46.271 21.5192C48.0631 22.2898 49.8553 21.0891 51.6474 21.0246L52.2818 21.6949C54.8518 24.4189 58.6404 23.6125 59.8089 20.0425C60.6763 17.4152 58.9056 15.4833 56.583 16.0137C55.7299 16.2073 54.8482 16.2682 53.7478 16.4188C54.1349 15.8596 54.3894 15.5048 54.6295 15.1392C55.5005 13.8166 56.1995 12.4223 56.178 10.7878C56.1349 7.92041 53.7406 6.07092 51.0883 6.84513C50.5435 7.00283 50.013 7.24657 49.4646 7.46162C49.1563 6.90247 48.909 6.38634 48.5972 5.89529C48.2611 5.31086 47.7957 4.8112 47.2365 4.43467C46.6773 4.05814 46.0392 3.81476 45.3713 3.72321C42.7046 3.36478 40.5038 4.20709 38.9769 6.46519C38.2014 7.62928 37.7941 8.99985 37.8082 10.3986C37.8223 11.7973 38.257 13.1594 39.0558 14.3076C39.6424 15.1662 40.5444 15.7583 41.5655 15.955C42.5865 16.1517 43.6439 15.937 44.5075 15.3578ZM55.2926 19.5945C55.3247 19.4678 55.3982 19.3556 55.5015 19.2757C55.6048 19.1958 55.7319 19.1528 55.8625 19.1536C55.9714 19.1512 56.08 19.1645 56.1851 19.193C56.2615 19.2144 56.3328 19.2511 56.3944 19.3011C56.4561 19.351 56.5068 19.413 56.5436 19.4833C56.5985 19.5737 56.6311 19.6759 56.6385 19.7814C56.646 19.8869 56.6281 19.9926 56.5863 20.0898C56.5446 20.1869 56.4802 20.2727 56.3986 20.3399C56.3169 20.4072 56.2204 20.4539 56.117 20.4762H56.0884H55.9737C55.9319 20.4797 55.8899 20.4797 55.8482 20.4762H55.7514L55.6475 20.4404C55.493 20.3695 55.3708 20.2433 55.3051 20.0866C55.2394 19.9299 55.2349 19.7543 55.2926 19.5945ZM41.5505 11.2825L41.5935 11.2646L41.6938 11.2287C41.8213 11.191 41.957 11.191 42.0845 11.2287L42.1777 11.2646C42.2274 11.2879 42.2742 11.3168 42.3175 11.3506C42.346 11.3664 42.3725 11.3857 42.3964 11.4079L42.4429 11.4509C42.5024 11.5077 42.5575 11.5688 42.6078 11.6337L42.6652 11.709C42.699 11.7567 42.7289 11.8071 42.7548 11.8596C42.779 11.9068 42.7994 11.956 42.8157 12.0065C42.8395 12.0745 42.8516 12.146 42.8516 12.218C42.8532 12.2478 42.8532 12.2777 42.8516 12.3076C42.8309 12.4322 42.7763 12.5488 42.6938 12.6445V12.666L42.6616 12.6983C42.587 12.7639 42.4988 12.8122 42.4034 12.84C42.308 12.8677 42.2076 12.8741 42.1094 12.8587C42.0113 12.8433 41.9177 12.8065 41.8353 12.7509C41.753 12.6953 41.6839 12.6223 41.6329 12.537L41.5325 12.3757L41.3641 12.0997C41.3215 12.0341 41.2926 11.9607 41.2789 11.8838C41.2652 11.8068 41.2671 11.7279 41.2845 11.6517C41.3019 11.5755 41.3344 11.5035 41.3801 11.4401C41.4257 11.3767 41.4837 11.3231 41.5505 11.2825Z" fill="#723729"/>
<path d="M37.5678 33.7632H35.6933C37.066 31.1646 36.9334 28.8276 34.7685 26.953C31.9656 24.5157 29.0659 24.444 26.3705 27.0785C25.7433 26.5121 25.2952 26.0247 24.7468 25.6196C21.7217 23.2934 17.8399 23.9888 16.2126 27.3114C15.5612 28.7279 15.1795 30.2534 15.0872 31.8097C14.9509 33.6377 15.8614 35.1825 17.3632 36.2901C18.865 37.3976 20.9797 37.1611 22.3812 35.7094C23.5353 34.4908 23.4171 32.7596 22.1195 31.2255C21.1088 30.057 19.8686 29.8384 18.313 30.2291C18.6714 28.2541 19.7467 27.3616 21.4457 27.4656C23.1446 27.5695 24.5569 29.0534 24.6716 30.9997C24.7325 32.2506 24.6716 33.5087 24.7182 34.7596C24.7182 35.2327 24.8328 35.7023 24.8974 36.1933H27.858C27.9153 35.3618 27.9225 34.6521 28.0229 33.9567C28.1316 32.8912 28.327 31.8363 28.6071 30.8025C28.7724 30.2852 29.1332 29.8529 29.6126 29.5978C30.092 29.3427 30.6521 29.285 31.1735 29.4369C32.1663 29.7093 32.7541 30.5516 32.4387 31.7524C32.2987 32.2274 32.1013 32.6836 31.8509 33.1108C31.6036 33.5481 31.3312 33.9818 31.1018 34.4263C31.0588 35.2184 31.0229 35.9137 31.0444 36.7417H40.3385C40.8511 32.8886 40.9012 29.1394 40.9944 25.272L38.0195 25.1107C37.8618 28.1107 37.7148 30.9387 37.5678 33.7632ZM19.1553 33.5194C19.1891 33.4557 19.2326 33.3977 19.2844 33.3474C19.3417 33.2865 19.4098 33.2219 19.4922 33.1431H19.5138C19.5933 33.0779 19.6908 33.0385 19.7932 33.0302C19.8957 33.0219 19.9983 33.045 20.0872 33.0965C20.1122 33.1127 20.1351 33.132 20.1553 33.1538C20.1882 33.1858 20.2182 33.2205 20.245 33.2578C20.2462 33.2661 20.2462 33.2746 20.245 33.2829C20.2645 33.3079 20.2802 33.3357 20.2915 33.3653C20.2957 33.3757 20.2957 33.3872 20.2915 33.3976C20.3088 33.4302 20.3209 33.4652 20.3274 33.5015C20.3326 33.542 20.3326 33.5829 20.3274 33.6234C20.3327 33.6734 20.3327 33.7239 20.3274 33.7739C20.3163 33.8302 20.297 33.8846 20.27 33.9352C20.2395 33.9959 20.197 34.0498 20.1451 34.0936C20.0932 34.1375 20.033 34.1705 19.9681 34.1905C19.9032 34.2106 19.8349 34.2174 19.7673 34.2105C19.6997 34.2036 19.6342 34.1831 19.5747 34.1503L19.4564 34.0858C19.141 33.8814 19.0299 33.7381 19.1553 33.5194Z" fill="#723729"/>
<path d="M17.4566 14.2861C19.3526 17.5729 24.2667 17.9744 26.5893 15.003C27.3719 14.0119 27.9337 12.8651 28.2372 11.6393C28.5407 10.4135 28.5789 9.13705 28.3492 7.89532C28.0768 6.26088 27.3815 4.79491 25.5929 4.2501C25.2764 4.13215 24.9343 4.10008 24.6013 4.15714C24.2684 4.2142 23.9565 4.35835 23.6973 4.57496C23.4381 4.79157 23.2408 5.07291 23.1255 5.39042C23.0102 5.70794 22.981 6.0503 23.0409 6.38275C23.1269 6.9885 23.4961 7.5584 23.5893 8.1749C23.7917 9.29852 23.8913 10.4383 23.8868 11.58C23.8617 12.3578 23.5749 13.2288 22.6072 13.4187C21.6394 13.6087 20.9656 13.1105 20.4244 12.3936C20.1752 12.0243 19.9489 11.6401 19.7469 11.2431C19.3869 10.5241 18.986 9.82645 18.5462 9.15341C17.3383 7.49747 15.6787 7.08886 13.8077 7.91683C13.4171 8.08887 13.03 8.27526 12.65 8.46164C12.3561 7.9455 12.1446 7.50463 11.8722 7.09961C10.6787 5.33255 8.37396 4.39705 6.49579 4.98846C1.33441 6.59064 -0.325123 13.0101 1.43477 16.6517C2.08352 17.9887 3.16239 17.9815 4.04413 16.6768C3.45272 14.1678 3.44555 13.5621 3.98678 11.9671C4.52801 10.3721 5.61047 9.5656 7.16605 9.59069C8.9116 9.61937 9.90804 10.347 10.3561 12.0997C10.6141 13.0925 10.6894 14.1248 10.8758 15.1356C11.0084 15.8704 11.2808 16.5191 12.1661 16.7019C13.4457 16.5263 13.7361 15.4188 14.1805 14.4582C14.4816 13.813 14.6859 13.0961 15.6142 13.0424C16.5426 12.9886 17.0229 13.5334 17.4566 14.2861Z" fill="#723729"/>
<path d="M71.9413 8.91326C71.8624 9.42581 71.8051 9.76632 71.7585 10.1104C71.5398 11.7914 71.651 13.4187 72.5255 14.9205C73.8051 17.1249 76.307 17.3722 78.0167 15.4618C78.5511 14.8807 78.9358 14.1782 79.1375 13.415C79.3393 12.6518 79.3519 11.8509 79.1744 11.0818C78.816 9.44373 78.203 7.85589 77.6224 6.01356C78.0633 5.61212 78.6977 5.04939 79.2998 4.48307C79.988 3.85223 80.7801 3.29308 81.3178 2.55472C81.6225 2.13536 81.7587 1.24645 81.5113 0.862934C81.3177 0.612789 81.0702 0.409442 80.7873 0.267972C80.5044 0.126502 80.1932 0.0505388 79.8769 0.0457153C78.9091 0.163997 77.9629 0.762574 77.2174 1.38983C76.2102 2.24289 75.4037 3.33251 74.5112 4.32178C71.3678 3.7698 68.6581 4.08163 67.3821 7.61216C66.9412 7.02075 66.6114 6.53687 66.2243 6.07808C65.8436 5.61397 65.3348 5.27206 64.7612 5.09489C64.1876 4.91772 63.5746 4.91312 62.9985 5.08165C61.5934 5.53685 60.8873 6.95265 60.4106 8.30751C59.5253 10.8165 60.278 13.2646 60.6758 15.7198C60.7284 15.9212 60.8364 16.1038 60.9877 16.2467C61.1441 16.4195 61.3551 16.5333 61.5854 16.5692C61.8157 16.605 62.0513 16.5608 62.2529 16.4439C62.4458 16.3196 62.606 16.151 62.7201 15.952C62.8342 15.7531 62.899 15.5296 62.9089 15.3005C63.0988 13.8847 63.2673 12.4617 63.4823 11.0531C63.5481 10.742 63.6541 10.4407 63.7978 10.157C63.8559 10.0286 63.9496 9.91957 64.0677 9.84272C64.1859 9.76587 64.3235 9.72443 64.4644 9.72331C64.7512 9.75198 65.2171 10.8703 65.3677 11.5441C65.643 12.8537 65.8488 14.177 65.9842 15.5084C66.1706 17.2324 67.1347 17.8525 68.6975 17.132C68.7972 17.0879 68.8831 17.0176 68.9462 16.9286C69.0093 16.8397 69.0472 16.7354 69.0559 16.6267C69.0846 16.2682 69.1097 15.8453 69.1599 15.4438C69.3247 14.1141 69.4394 12.7735 69.7047 11.4653C69.8036 10.8741 70.0652 10.3222 70.4603 9.87141C70.8554 9.42064 71.3682 9.08885 71.9413 8.91326ZM73.8051 11.9169C73.8016 11.874 73.8016 11.8308 73.8051 11.7879C73.8159 11.6674 73.8338 11.5477 73.8589 11.4294L73.8911 11.2896C73.9397 11.1088 74.0008 10.9316 74.0739 10.7592C74.0919 10.7126 74.1134 10.6624 74.1385 10.6122C74.1901 10.4971 74.2475 10.3846 74.3105 10.2753C74.3105 10.243 74.3463 10.2108 74.3643 10.1785C74.3717 10.164 74.3814 10.1507 74.3929 10.1391C74.4617 10.0417 74.5502 9.95988 74.6528 9.89908C74.7553 9.83829 74.8696 9.79986 74.9881 9.78632C75.1065 9.77278 75.2265 9.78444 75.3401 9.82053C75.4538 9.85661 75.5585 9.91631 75.6474 9.99571C75.7466 10.0911 75.8366 10.1955 75.9163 10.3075C75.9736 10.3828 76.0238 10.4581 76.0704 10.5334C76.1563 10.6771 76.2318 10.8268 76.2962 10.9814C76.3137 11.0184 76.328 11.0567 76.3392 11.0961C76.3709 11.1755 76.3972 11.2569 76.4181 11.3398C76.4467 11.4336 76.4683 11.5295 76.4826 11.6266C76.5012 11.7225 76.5144 11.8194 76.522 11.9169C76.5274 12.0136 76.5274 12.1105 76.522 12.2072V12.2323C76.5218 12.368 76.511 12.5034 76.4897 12.6373C76.4756 12.7803 76.4492 12.9218 76.4109 13.0603C76.3942 13.132 76.3727 13.2037 76.3464 13.2753C76.3464 13.3184 76.3177 13.3578 76.2998 13.4008C76.2393 13.5529 76.146 13.6898 76.0266 13.8018C75.9071 13.9138 75.7645 13.9981 75.6088 14.0487C75.4532 14.0994 75.2882 14.1151 75.1258 14.0948C74.9633 14.0745 74.8074 14.0187 74.6689 13.9313L74.5614 13.8452C74.501 13.7987 74.4447 13.7471 74.3929 13.6911C74.3428 13.6374 74.2997 13.5872 74.2567 13.5334C74.227 13.5002 74.2006 13.4642 74.1779 13.4259C74.1411 13.3755 74.1076 13.3228 74.0775 13.2682C74.0451 13.2183 74.0175 13.1655 73.9951 13.1105C73.9519 13.024 73.9159 12.9341 73.8876 12.8416C73.8658 12.7734 73.8479 12.704 73.8338 12.6338C73.8232 12.5987 73.816 12.5627 73.8123 12.5262C73.8002 12.4635 73.7918 12.4 73.7872 12.3363C73.7818 12.2503 73.7818 12.1641 73.7872 12.0782C73.7979 12.0352 73.8015 11.9742 73.8051 11.9169Z" fill="#723729"/>
<path d="M8.61088 31.9065C8.15567 32.3008 7.77215 32.7775 7.33845 33.2327C6.43163 31.799 6.62159 30.333 7.80083 28.9315C8.26351 29.1657 8.7427 29.3658 9.23454 29.5301C9.92647 29.74 10.6647 29.7429 11.3582 29.5385C12.0518 29.334 12.6704 28.9312 13.1378 28.3796C14.1235 27.2792 14.1092 26.0068 13.5536 24.7343C12.9981 23.4619 11.9873 22.5838 10.5356 22.6662C7.98721 22.7845 5.79721 23.6949 4.51403 26.0605C4.0573 26.9806 3.66565 27.9316 3.34197 28.9064C2.12689 32.1682 4.05882 35.8206 6.88325 37.3439C7.95126 37.8766 9.16543 38.0414 10.3368 37.8126C11.5082 37.5837 12.5711 36.9741 13.3601 36.0786C14.0984 35.179 14.335 34.204 13.8332 33.0822C12.869 30.9208 10.4281 30.3438 8.61088 31.9065ZM9.7471 25.6412L9.80803 25.5516C9.86614 25.4642 9.94501 25.3925 10.0376 25.3431C10.1302 25.2937 10.2336 25.268 10.3385 25.2684C10.4885 25.2672 10.6338 25.3207 10.7471 25.4189H10.7686C10.9035 25.5427 10.9907 25.7099 11.0149 25.8913C11.0392 26.0728 10.9989 26.257 10.9012 26.4118C10.8724 26.4595 10.8401 26.5051 10.8045 26.548C10.8045 26.5695 10.7722 26.5874 10.7579 26.6053L10.7113 26.6555C10.6725 26.6946 10.6277 26.7273 10.5787 26.7523C10.5609 26.7626 10.5415 26.7698 10.5213 26.7738H10.4711C10.3905 26.7857 10.3081 26.7732 10.2346 26.738L10.1557 26.6985C10.062 26.6416 9.97327 26.5768 9.89047 26.505L9.84387 26.4655C9.73516 26.3604 9.66614 26.2208 9.6485 26.0706C9.63086 25.9204 9.6657 25.7687 9.7471 25.6412ZM11.3493 34.8385V34.86C11.3223 34.9095 11.2924 34.9574 11.2597 35.0033C11.2249 35.057 11.1853 35.1074 11.1414 35.1539C11.1071 35.1944 11.0659 35.2284 11.0195 35.2542C11.0015 35.2659 10.9823 35.2755 10.9622 35.2829C10.8944 35.3034 10.8221 35.3034 10.7543 35.2829C10.7198 35.2794 10.686 35.271 10.6539 35.2578C10.6171 35.2491 10.5811 35.2371 10.5464 35.222L10.4281 35.1969L10.3528 35.1718H10.3349C10.2496 35.1283 10.1818 35.057 10.1427 34.9696C10.1036 34.8822 10.0955 34.7841 10.1199 34.6915C10.131 34.6573 10.1466 34.6247 10.1665 34.5947C10.1665 34.5732 10.1916 34.5553 10.2023 34.5374L10.2381 34.4836C10.2632 34.4514 10.2847 34.4191 10.3098 34.3904C10.3677 34.3223 10.4354 34.2631 10.5106 34.2148L10.5571 34.1897C10.5961 34.1674 10.6385 34.1516 10.6826 34.1431C10.7004 34.1397 10.7186 34.1397 10.7364 34.1431C10.8805 34.1271 11.0262 34.1532 11.1557 34.2184L11.2131 34.2506C11.3007 34.3174 11.3622 34.4127 11.387 34.52C11.4119 34.6273 11.3986 34.7399 11.3493 34.8385Z" fill="#723729"/>
<path d="M78.5467 24.7558C75.6793 23.9494 73.2061 24.8813 71.2742 27.0534C69.4821 29.0785 69.2383 31.4764 70.1667 33.9711C70.6434 35.2507 71.5323 36.2614 72.9445 36.4227C73.6326 36.4696 74.3136 36.2588 74.8549 35.8313C75.4392 35.3403 75.1202 34.5911 74.7474 33.989C74.5825 33.7237 74.389 33.4693 74.2313 33.204C73.9788 32.8088 73.8353 32.3539 73.8153 31.8853C73.7954 31.4167 73.8997 30.9512 74.1177 30.536C74.3357 30.1208 74.6596 29.7706 75.0566 29.5209C75.4536 29.2712 75.9096 29.131 76.3782 29.1143C79.1847 28.8885 80.8765 31.4979 79.7152 34.2542C79.622 34.4657 79.536 34.6807 79.4536 34.8922C79.3838 35.0635 79.3499 35.2472 79.3539 35.4321C79.358 35.6169 79.4 35.799 79.4773 35.967C79.5545 36.135 79.6655 36.2853 79.8032 36.4087C79.9409 36.5321 80.1025 36.6259 80.278 36.6844C80.726 36.8098 81.1167 36.6449 81.6221 36.2112C82.101 35.8071 82.505 35.3218 82.8156 34.7775C85.0128 30.7058 83.0522 26.0247 78.5467 24.7558Z" fill="#723729"/>
<path d="M88.7585 21.7056C88.2065 18.8489 85.3391 16.813 82.4717 17.3614C81.6078 17.5256 80.8138 17.9472 80.1939 18.5709C79.574 19.1946 79.1573 19.9912 78.9985 20.8561C78.8806 21.4106 78.9224 21.9872 79.1191 22.5188C79.3158 23.0505 79.6593 23.5155 80.1096 23.8598C80.2626 23.9701 80.4363 24.0484 80.6203 24.0902C80.8042 24.1319 80.9947 24.1362 81.1803 24.1027C81.366 24.0693 81.543 23.9988 81.7008 23.8955C81.8586 23.7921 81.994 23.6581 82.0989 23.5013C82.3211 23.1752 82.5469 22.8311 82.7512 22.4798C83.4681 21.2611 84.7764 21.1572 85.5291 22.3508C85.7705 22.7738 85.9012 23.2509 85.909 23.7379C85.9233 24.6829 85.8886 25.6281 85.8051 26.5695C85.5972 29.2935 85.3606 32.0104 85.1455 34.7309C85.0969 35.0587 85.1292 35.3935 85.2398 35.7059C85.3504 36.0183 85.5359 36.2989 85.78 36.5231C85.9201 36.6439 86.0891 36.7266 86.2706 36.763C86.4521 36.7994 86.6399 36.7884 86.8158 36.731C87.1106 36.6284 87.3692 36.4423 87.5601 36.1954C87.751 35.9485 87.866 35.6514 87.8911 35.3403C88.2091 33.7514 88.4341 32.1453 88.565 30.5301C88.6832 27.5946 89.3499 24.677 88.7585 21.7056Z" fill="#723729"/>
<path d="M29.425 16.175C30.339 16.8919 31.3856 17.2503 32.5433 16.745C33.9183 16.1775 35.0718 15.1788 35.8301 13.899C37.2387 11.5298 36.6366 7.88099 34.5684 6.1677C33.5648 5.33615 32.3497 5.15693 31.3426 5.80927C30.2243 6.52613 29.4931 7.53332 29.5504 8.90969C29.6113 10.2287 30.5576 10.6266 31.6651 9.88103C31.8951 9.74433 32.1347 9.62454 32.382 9.5226C32.4274 9.50076 32.4794 9.49714 32.5274 9.51247C32.5754 9.5278 32.6157 9.56092 32.6401 9.60504C33.6293 11.3972 33.2422 12.9241 31.5433 13.9635C31.5104 13.9824 31.4737 13.9938 31.436 13.9969C31.3982 14 31.3602 13.9947 31.3246 13.9815C31.183 13.9303 31.0443 13.8717 30.9089 13.8058C30.1382 13.4116 29.3819 13.3865 28.9088 14.1643C28.4357 14.9421 28.7762 15.6625 29.425 16.175Z" fill="#723729"/>
</svg>
