<svg width="24" height="24" viewBox="0 0 24 24" fill="none" xmlns="http://www.w3.org/2000/svg">
<path d="M3.66749 0C2.69616 0.00394909 1.76573 0.391561 1.07889 1.0784C0.392049 1.76524 0.00443737 2.69567 0.000488281 3.667V20.333C0.00443737 21.3043 0.392049 22.2348 1.07889 22.9216C1.76573 23.6084 2.69616 23.9961 3.66749 24H20.3335C21.3048 23.9961 22.2352 23.6084 22.9221 22.9216C23.6089 22.2348 23.9965 21.3043 24.0005 20.333V3.667C23.9965 2.69567 23.6089 1.76524 22.9221 1.0784C22.2352 0.391561 21.3048 0.00394909 20.3335 0H3.66749ZM3.66749 2H20.3335C20.553 1.998 20.7706 2.03975 20.9738 2.12282C21.1769 2.20588 21.3615 2.32859 21.5167 2.48379C21.6719 2.63899 21.7946 2.82355 21.8777 3.02671C21.9607 3.22986 22.0025 3.44753 22.0005 3.667V20.333C22.0025 20.5525 21.9607 20.7701 21.8777 20.9733C21.7946 21.1764 21.6719 21.361 21.5167 21.5162C21.3615 21.6714 21.1769 21.7941 20.9738 21.8772C20.7706 21.9603 20.553 22.002 20.3335 22H3.66749C3.44802 22.002 3.23035 21.9603 3.02719 21.8772C2.82404 21.7941 2.63947 21.6714 2.48428 21.5162C2.32908 21.361 2.20637 21.1764 2.1233 20.9733C2.04024 20.7701 1.99849 20.5525 2.00049 20.333V3.667C1.99849 3.44753 2.04024 3.22986 2.1233 3.02671C2.20637 2.82355 2.32908 2.63899 2.48428 2.48379C2.63947 2.32859 2.82404 2.20588 3.02719 2.12282C3.23035 2.03975 3.44802 1.998 3.66749 2ZM6.33449 4.667C6.0047 4.6668 5.68227 4.76443 5.40798 4.94752C5.13369 5.13062 4.91987 5.39096 4.79357 5.6956C4.66728 6.00025 4.63418 6.33551 4.69847 6.65897C4.76276 6.98243 4.92155 7.27955 5.15474 7.51275C5.38794 7.74594 5.68506 7.90473 6.00852 7.96902C6.33198 8.03331 6.66724 8.00021 6.97188 7.87392C7.27653 7.74762 7.53687 7.5338 7.71996 7.25951C7.90306 6.98522 8.00069 6.66279 8.00049 6.333C8.00022 5.89106 7.82448 5.46731 7.51188 5.1549C7.19929 4.84249 6.77543 4.667 6.33349 4.667H6.33449ZM5.33449 9.334C5.24686 9.33387 5.16007 9.35103 5.07908 9.3845C4.9981 9.41798 4.92452 9.4671 4.86255 9.52907C4.80059 9.59103 4.75147 9.66461 4.71799 9.74559C4.68452 9.82658 4.66736 9.91337 4.66749 10.001V18.668C4.66736 18.7556 4.68452 18.8424 4.71799 18.9234C4.75147 19.0044 4.80059 19.078 4.86255 19.1399C4.92452 19.2019 4.9981 19.251 5.07908 19.2845C5.16007 19.318 5.24686 19.3351 5.33449 19.335H7.33449C7.42212 19.335 7.50888 19.3177 7.58982 19.2841C7.67075 19.2505 7.74426 19.2013 7.80613 19.1392C7.868 19.0772 7.91702 19.0035 7.95037 18.9225C7.98372 18.8414 8.00075 18.7546 8.00049 18.667V10C8.00062 9.91237 7.98346 9.82558 7.94998 9.74459C7.91651 9.66361 7.86738 9.59003 7.80542 9.52807C7.74346 9.4661 7.66988 9.41698 7.58889 9.3835C7.50791 9.35003 7.42112 9.33287 7.33349 9.333L5.33449 9.334ZM10.0015 9.334C9.91386 9.33387 9.82707 9.35103 9.74608 9.3845C9.6651 9.41798 9.59152 9.4671 9.52955 9.52907C9.46759 9.59103 9.41847 9.66461 9.38499 9.74559C9.35152 9.82658 9.33436 9.91337 9.33449 10.001V18.668C9.33436 18.7556 9.35152 18.8424 9.38499 18.9234C9.41847 19.0044 9.46759 19.078 9.52955 19.1399C9.59152 19.2019 9.6651 19.251 9.74608 19.2845C9.82707 19.318 9.91386 19.3351 10.0015 19.335H12.0015C12.0891 19.3351 12.1759 19.318 12.2569 19.2845C12.3379 19.251 12.4115 19.2019 12.4734 19.1399C12.5354 19.078 12.5845 19.0044 12.618 18.9234C12.6515 18.8424 12.6686 18.7556 12.6685 18.668V13.668C12.6791 13.2331 12.8594 12.8196 13.1708 12.5157C13.4821 12.2119 13.8999 12.0418 14.335 12.0418C14.77 12.0418 15.1878 12.2119 15.4992 12.5157C15.8106 12.8196 15.9908 13.2331 16.0015 13.668V18.668C16.0014 18.7556 16.0185 18.8424 16.052 18.9234C16.0855 19.0044 16.1346 19.078 16.1966 19.1399C16.2585 19.2019 16.3321 19.251 16.4131 19.2845C16.4941 19.318 16.5809 19.3351 16.6685 19.335H18.6685C18.7561 19.3351 18.8429 19.318 18.9239 19.2845C19.0049 19.251 19.0785 19.2019 19.1404 19.1399C19.2024 19.078 19.2515 19.0044 19.285 18.9234C19.3185 18.8424 19.3356 18.7556 19.3355 18.668V13.333C19.337 12.5602 19.1141 11.8035 18.694 11.1548C18.2739 10.5062 17.6746 9.99334 16.9687 9.67858C16.2629 9.36383 15.4809 9.26068 14.7176 9.38163C13.9542 9.50258 13.2424 9.84245 12.6685 10.36V10C12.6686 9.91229 12.6514 9.82541 12.6179 9.74436C12.5844 9.66331 12.5351 9.58969 12.4731 9.52771C12.411 9.46573 12.3373 9.41663 12.2562 9.38322C12.1751 9.3498 12.0882 9.33274 12.0005 9.333L10.0015 9.334Z" fill="#0078D4"/>
</svg>
