<svg width="110" height="110" viewBox="0 0 110 110" fill="none" xmlns="http://www.w3.org/2000/svg">
<circle cx="55" cy="55" r="55" fill="#F4B54B"/>
<path d="M76.651 63.2935C74.4073 61.2971 71.4717 61.2863 68.7907 63.2183C68.4968 63.4297 68.0452 63.4226 67.59 63.5337C67.4322 62.8527 67.3391 62.3724 67.2136 61.9028C66.2064 58.168 62.0164 56.6769 59.0342 58.9852C58.3761 59.4671 57.891 60.1484 57.6507 60.9279C57.5744 61.2285 57.5887 61.5449 57.6917 61.8375C57.7947 62.13 57.9818 62.3856 58.2296 62.5721C58.4774 62.7586 58.7748 62.8677 59.0844 62.8857C59.394 62.9038 59.702 62.8299 59.9698 62.6735C60.1275 62.5803 60.2852 62.4799 60.4465 62.3795C61.8407 61.4978 63.1777 61.8204 63.7834 63.2971C62.6006 63.2971 61.4859 63.2219 60.3855 63.2971C58.1059 63.4799 55.8335 63.7523 53.8764 65.1108C52.3603 66.1646 51.8047 67.7703 52.346 69.4549C52.9374 71.2865 54.2636 72.3833 56.1059 72.2292C57.1812 72.1396 58.2565 71.6342 59.769 71.1862C62.3999 72.3224 64.0702 71.8457 66.6795 68.9352C68.4717 71.3403 70.4825 72.1002 72.565 71.1754C73.5937 70.7166 74.2818 69.8922 74.3033 68.8134C74.3248 67.8133 73.9951 66.8062 73.823 65.8276C75.2281 66.419 75.5901 66.9567 75.5256 68.4119C75.4252 70.5983 74.2066 71.9962 71.8481 72.584C71.1599 72.7489 70.5362 72.8887 70.3929 73.6987C71.0094 75.326 71.7872 75.7418 73.375 75.2364C75.4073 74.5912 77.0632 73.4443 78.1349 71.5446C79.6977 68.8134 79.092 65.4656 76.651 63.2935ZM63.1813 67.6664C61.9196 68.4047 60.8837 67.6162 59.8694 66.9173L58.6902 67.075L58.6687 67.1001C58.597 67.1825 58.5289 67.2685 58.4608 67.351C58.3927 67.4334 58.2708 67.5768 58.174 67.6843C58.131 67.7309 58.088 67.7811 58.0414 67.8277C57.9532 67.9213 57.8586 68.0088 57.7582 68.0893L57.622 68.1933C57.5754 68.2297 57.5249 68.261 57.4715 68.2865C57.2733 68.3745 57.0522 68.3969 56.8404 68.3505C56.6286 68.3041 56.4372 68.1913 56.294 68.0285C56.1508 67.8657 56.0633 67.6614 56.0443 67.4454C56.0253 67.2294 56.0757 67.013 56.1883 66.8277C56.2212 66.7683 56.2609 66.7129 56.3066 66.6628L56.3281 66.6377C56.3733 66.5828 56.4224 66.5313 56.4751 66.4836C56.5315 66.4295 56.5913 66.3792 56.6543 66.333C56.7222 66.2815 56.7928 66.2337 56.8658 66.1897C58.0199 65.4943 62.7297 65.1359 64.1132 65.6377C64.1971 66.0311 64.1517 66.4411 63.9838 66.8066C63.8159 67.1722 63.5344 67.4737 63.1813 67.6664ZM71.0667 68.1825C71.0591 68.2858 71.0292 68.3862 70.979 68.4768C70.9289 68.5674 70.8597 68.6461 70.7762 68.7074C70.6928 68.7687 70.597 68.8112 70.4956 68.832C70.3941 68.8527 70.2894 68.8513 70.1886 68.8277C69.952 68.7524 69.7835 68.5409 69.8696 68.075L69.8911 67.9818C69.8911 67.9818 69.8911 67.9603 69.8911 67.9495C69.9122 67.8627 69.9568 67.7833 70.02 67.7201C70.0833 67.6569 70.1626 67.6122 70.2495 67.5911C70.3223 67.5713 70.399 67.5713 70.4717 67.5911C70.6189 67.6141 70.7554 67.6823 70.862 67.7864C70.9686 67.8904 71.0402 68.0251 71.0667 68.1718V68.1825Z" fill="#723729"/>
<path d="M54.5075 49.3578C55.0636 49.0153 55.4904 48.4981 55.7213 47.8872C55.9522 47.2763 55.9741 46.6061 55.7835 45.9814C55.3068 44.0925 54.0165 43.114 52.106 42.7556C53.6759 41.3398 56.0022 41.8595 57.0058 43.7556C57.3642 44.4724 57.6043 45.2789 58.081 45.9061C58.4646 46.4402 59.099 47.132 59.6223 47.132C60.1456 47.132 60.7191 46.4151 61.1958 45.9312C61.5043 45.5725 61.7757 45.1834 62.0058 44.7699C62.9091 44.8631 63.1636 45.3147 63.1062 45.9097C62.9664 47.39 61.8768 48.1822 60.927 49.0317C58.8337 48.003 58.1706 47.9779 57.5864 49.1033C57.5441 49.1828 57.5293 49.2741 57.5442 49.3629C57.5591 49.4517 57.6029 49.5331 57.6688 49.5944L58.6975 50.5514C57.7764 51.6804 56.3534 52.3077 55.6545 53.5264C55.5551 53.6956 55.4921 53.8837 55.4695 54.0787C55.4468 54.2737 55.4651 54.4713 55.5231 54.6588C55.5811 54.8463 55.6776 55.0197 55.8064 55.1678C55.9351 55.316 56.0934 55.4356 56.271 55.5192C58.0631 56.2898 59.8553 55.0891 61.6474 55.0246L62.2818 55.6949C64.8518 58.4189 68.6404 57.6125 69.8089 54.0425C70.6763 51.4152 68.9056 49.4833 66.583 50.0137C65.7299 50.2073 64.8482 50.2682 63.7478 50.4188C64.1349 49.8596 64.3894 49.5048 64.6295 49.1392C65.5005 47.8166 66.1995 46.4223 66.178 44.7878C66.1349 41.9204 63.7406 40.0709 61.0883 40.8451C60.5435 41.0028 60.013 41.2466 59.4646 41.4616C59.1563 40.9025 58.909 40.3863 58.5972 39.8953C58.2611 39.3109 57.7957 38.8112 57.2365 38.4347C56.6773 38.0581 56.0392 37.8148 55.3713 37.7232C52.7046 37.3648 50.5038 38.2071 48.9769 40.4652C48.2014 41.6293 47.7941 42.9998 47.8082 44.3986C47.8223 45.7973 48.257 47.1594 49.0558 48.3076C49.6424 49.1662 50.5444 49.7583 51.5655 49.955C52.5865 50.1517 53.6439 49.937 54.5075 49.3578ZM65.2926 53.5945C65.3247 53.4678 65.3982 53.3556 65.5015 53.2757C65.6048 53.1958 65.7319 53.1528 65.8625 53.1536C65.9714 53.1512 66.08 53.1645 66.1851 53.193C66.2615 53.2144 66.3328 53.2511 66.3944 53.3011C66.4561 53.351 66.5068 53.413 66.5436 53.4833C66.5985 53.5737 66.6311 53.6759 66.6385 53.7814C66.646 53.8869 66.6281 53.9926 66.5863 54.0898C66.5446 54.1869 66.4802 54.2727 66.3986 54.3399C66.3169 54.4072 66.2204 54.4539 66.117 54.4762H66.0884H65.9737C65.9319 54.4797 65.8899 54.4797 65.8482 54.4762H65.7514L65.6475 54.4404C65.493 54.3695 65.3708 54.2433 65.3051 54.0866C65.2394 53.9299 65.2349 53.7543 65.2926 53.5945ZM51.5505 45.2825L51.5935 45.2646L51.6938 45.2287C51.8213 45.191 51.957 45.191 52.0845 45.2287L52.1777 45.2646C52.2274 45.2879 52.2742 45.3168 52.3175 45.3506C52.346 45.3664 52.3725 45.3857 52.3964 45.4079L52.4429 45.4509C52.5024 45.5077 52.5575 45.5688 52.6078 45.6337L52.6652 45.709C52.699 45.7567 52.7289 45.8071 52.7548 45.8596C52.779 45.9068 52.7994 45.956 52.8157 46.0065C52.8395 46.0745 52.8516 46.146 52.8516 46.218C52.8532 46.2478 52.8532 46.2777 52.8516 46.3076C52.8309 46.4322 52.7763 46.5488 52.6938 46.6445V46.666L52.6616 46.6983C52.587 46.7639 52.4988 46.8122 52.4034 46.84C52.308 46.8677 52.2076 46.8741 52.1094 46.8587C52.0113 46.8433 51.9177 46.8065 51.8353 46.7509C51.753 46.6953 51.6839 46.6223 51.6329 46.537L51.5325 46.3757L51.3641 46.0997C51.3215 46.0341 51.2926 45.9607 51.2789 45.8838C51.2652 45.8068 51.2671 45.7279 51.2845 45.6517C51.3019 45.5755 51.3344 45.5035 51.3801 45.4401C51.4257 45.3767 51.4837 45.3231 51.5505 45.2825Z" fill="#723729"/>
<path d="M47.5678 67.7632H45.6933C47.066 65.1646 46.9334 62.8276 44.7685 60.953C41.9656 58.5157 39.0659 58.444 36.3705 61.0785C35.7433 60.5121 35.2952 60.0247 34.7468 59.6196C31.7217 57.2934 27.8399 57.9888 26.2126 61.3114C25.5612 62.7279 25.1795 64.2534 25.0872 65.8097C24.9509 67.6377 25.8614 69.1825 27.3632 70.2901C28.865 71.3976 30.9797 71.1611 32.3812 69.7094C33.5353 68.4908 33.4171 66.7596 32.1195 65.2255C31.1088 64.057 29.8686 63.8384 28.313 64.2291C28.6714 62.2541 29.7467 61.3616 31.4457 61.4656C33.1446 61.5695 34.5569 63.0534 34.6716 64.9997C34.7325 66.2506 34.6716 67.5087 34.7182 68.7596C34.7182 69.2327 34.8328 69.7023 34.8974 70.1933H37.858C37.9153 69.3618 37.9225 68.6521 38.0229 67.9567C38.1316 66.8912 38.327 65.8363 38.6071 64.8025C38.7724 64.2852 39.1332 63.8529 39.6126 63.5978C40.092 63.3427 40.6521 63.285 41.1735 63.4369C42.1663 63.7093 42.7541 64.5516 42.4387 65.7524C42.2987 66.2274 42.1013 66.6836 41.8509 67.1108C41.6036 67.5481 41.3312 67.9818 41.1018 68.4263C41.0588 69.2184 41.0229 69.9137 41.0444 70.7417H50.3385C50.8511 66.8886 50.9012 63.1394 50.9944 59.272L48.0195 59.1107C47.8618 62.1107 47.7148 64.9387 47.5678 67.7632ZM29.1553 67.5194C29.1891 67.4557 29.2326 67.3977 29.2844 67.3474C29.3417 67.2865 29.4098 67.2219 29.4922 67.1431H29.5138C29.5933 67.0779 29.6908 67.0385 29.7932 67.0302C29.8957 67.0219 29.9983 67.045 30.0872 67.0965C30.1122 67.1127 30.1351 67.132 30.1553 67.1538C30.1882 67.1858 30.2182 67.2205 30.245 67.2578C30.2462 67.2661 30.2462 67.2746 30.245 67.2829C30.2645 67.3079 30.2802 67.3357 30.2915 67.3653C30.2957 67.3757 30.2957 67.3872 30.2915 67.3976C30.3088 67.4302 30.3209 67.4652 30.3274 67.5015C30.3326 67.542 30.3326 67.5829 30.3274 67.6234C30.3327 67.6734 30.3327 67.7239 30.3274 67.7739C30.3163 67.8302 30.297 67.8846 30.27 67.9352C30.2395 67.9959 30.197 68.0498 30.1451 68.0936C30.0932 68.1375 30.033 68.1705 29.9681 68.1905C29.9032 68.2106 29.8349 68.2174 29.7673 68.2105C29.6997 68.2036 29.6342 68.1831 29.5747 68.1503L29.4564 68.0858C29.141 67.8814 29.0299 67.7381 29.1553 67.5194Z" fill="#723729"/>
<path d="M27.4566 48.2861C29.3526 51.5729 34.2667 51.9744 36.5893 49.003C37.3719 48.0119 37.9337 46.8651 38.2372 45.6393C38.5407 44.4135 38.5789 43.1371 38.3492 41.8953C38.0768 40.2609 37.3815 38.7949 35.5929 38.2501C35.2764 38.1322 34.9343 38.1001 34.6013 38.1571C34.2684 38.2142 33.9565 38.3584 33.6973 38.575C33.4381 38.7916 33.2408 39.0729 33.1255 39.3904C33.0102 39.7079 32.981 40.0503 33.0409 40.3828C33.1269 40.9885 33.4961 41.5584 33.5893 42.1749C33.7917 43.2985 33.8913 44.4383 33.8868 45.58C33.8617 46.3578 33.5749 47.2288 32.6072 47.4187C31.6394 47.6087 30.9656 47.1105 30.4244 46.3936C30.1752 46.0243 29.9489 45.6401 29.7469 45.2431C29.3869 44.5241 28.986 43.8265 28.5462 43.1534C27.3383 41.4975 25.6787 41.0889 23.8077 41.9168C23.4171 42.0889 23.03 42.2753 22.65 42.4616C22.3561 41.9455 22.1446 41.5046 21.8722 41.0996C20.6787 39.3326 18.374 38.3971 16.4958 38.9885C11.3344 40.5906 9.67488 47.0101 11.4348 50.6517C12.0835 51.9887 13.1624 51.9815 14.0441 50.6768C13.4527 48.1678 13.4456 47.5621 13.9868 45.9671C14.528 44.3721 15.6105 43.5656 17.1661 43.5907C18.9116 43.6194 19.908 44.347 20.3561 46.0997C20.6141 47.0925 20.6894 48.1248 20.8758 49.1356C21.0084 49.8704 21.2808 50.5191 22.1661 50.7019C23.4457 50.5263 23.7361 49.4188 24.1805 48.4582C24.4816 47.813 24.6859 47.0961 25.6142 47.0424C26.5426 46.9886 27.0229 47.5334 27.4566 48.2861Z" fill="#723729"/>
<path d="M81.9413 42.9133C81.8624 43.4258 81.8051 43.7663 81.7585 44.1104C81.5398 45.7914 81.651 47.4187 82.5255 48.9205C83.8051 51.1249 86.307 51.3722 88.0167 49.4618C88.5511 48.8807 88.9358 48.1782 89.1375 47.415C89.3393 46.6518 89.3519 45.8509 89.1744 45.0818C88.816 43.4437 88.203 41.8559 87.6224 40.0136C88.0633 39.6121 88.6977 39.0494 89.2998 38.4831C89.988 37.8522 90.7801 37.2931 91.3178 36.5547C91.6225 36.1354 91.7587 35.2465 91.5113 34.8629C91.3177 34.6128 91.0702 34.4094 90.7873 34.268C90.5044 34.1265 90.1932 34.0505 89.8769 34.0457C88.9091 34.164 87.9629 34.7626 87.2174 35.3898C86.2102 36.2429 85.4037 37.3325 84.5112 38.3218C81.3678 37.7698 78.6581 38.0816 77.3821 41.6122C76.9412 41.0208 76.6114 40.5369 76.2243 40.0781C75.8436 39.614 75.3348 39.2721 74.7612 39.0949C74.1876 38.9177 73.5746 38.9131 72.9985 39.0816C71.5934 39.5369 70.8873 40.9526 70.4106 42.3075C69.5253 44.8165 70.278 47.2646 70.6758 49.7198C70.7284 49.9212 70.8364 50.1038 70.9877 50.2467C71.1441 50.4195 71.3551 50.5333 71.5854 50.5692C71.8157 50.605 72.0513 50.5608 72.2529 50.4439C72.4458 50.3196 72.606 50.151 72.7201 49.952C72.8342 49.7531 72.899 49.5296 72.9089 49.3005C73.0988 47.8847 73.2673 46.4617 73.4823 45.0531C73.5481 44.742 73.6541 44.4407 73.7978 44.157C73.8559 44.0286 73.9496 43.9196 74.0677 43.8427C74.1859 43.7659 74.3235 43.7244 74.4644 43.7233C74.7512 43.752 75.2171 44.8703 75.3677 45.5441C75.643 46.8537 75.8488 48.177 75.9842 49.5084C76.1706 51.2324 77.1347 51.8525 78.6975 51.132C78.7972 51.0879 78.8831 51.0176 78.9462 50.9286C79.0093 50.8397 79.0472 50.7354 79.0559 50.6267C79.0846 50.2682 79.1097 49.8453 79.1599 49.4438C79.3247 48.1141 79.4394 46.7735 79.7047 45.4653C79.8036 44.8741 80.0652 44.3222 80.4603 43.8714C80.8554 43.4206 81.3682 43.0889 81.9413 42.9133ZM83.8051 45.9169C83.8016 45.874 83.8016 45.8308 83.8051 45.7879C83.8159 45.6674 83.8338 45.5477 83.8589 45.4294L83.8911 45.2896C83.9397 45.1088 84.0008 44.9316 84.0739 44.7592C84.0919 44.7126 84.1134 44.6624 84.1385 44.6122C84.1901 44.4971 84.2475 44.3846 84.3105 44.2753C84.3105 44.243 84.3463 44.2108 84.3643 44.1785C84.3717 44.164 84.3814 44.1507 84.3929 44.1391C84.4617 44.0417 84.5502 43.9599 84.6528 43.8991C84.7553 43.8383 84.8696 43.7999 84.9881 43.7863C85.1065 43.7728 85.2265 43.7844 85.3401 43.8205C85.4538 43.8566 85.5585 43.9163 85.6474 43.9957C85.7466 44.0911 85.8366 44.1955 85.9163 44.3075C85.9736 44.3828 86.0238 44.4581 86.0704 44.5334C86.1563 44.6771 86.2318 44.8268 86.2962 44.9814C86.3137 45.0184 86.328 45.0567 86.3392 45.0961C86.3709 45.1755 86.3972 45.2569 86.4181 45.3398C86.4467 45.4336 86.4683 45.5295 86.4826 45.6266C86.5012 45.7225 86.5144 45.8194 86.522 45.9169C86.5274 46.0136 86.5274 46.1105 86.522 46.2072V46.2323C86.5218 46.368 86.511 46.5034 86.4897 46.6373C86.4756 46.7803 86.4492 46.9218 86.4109 47.0603C86.3942 47.132 86.3727 47.2037 86.3464 47.2753C86.3464 47.3184 86.3177 47.3578 86.2998 47.4008C86.2393 47.5529 86.146 47.6898 86.0266 47.8018C85.9071 47.9138 85.7645 47.9981 85.6088 48.0487C85.4532 48.0994 85.2882 48.1151 85.1258 48.0948C84.9633 48.0745 84.8074 48.0187 84.6689 47.9313L84.5614 47.8452C84.501 47.7987 84.4447 47.7471 84.3929 47.6911C84.3428 47.6374 84.2997 47.5872 84.2567 47.5334C84.227 47.5002 84.2006 47.4642 84.1779 47.4259C84.1411 47.3755 84.1076 47.3228 84.0775 47.2682C84.0451 47.2183 84.0175 47.1655 83.9951 47.1105C83.9519 47.024 83.9159 46.9341 83.8876 46.8416C83.8658 46.7734 83.8479 46.704 83.8338 46.6338C83.8232 46.5987 83.816 46.5627 83.8123 46.5262C83.8002 46.4635 83.7918 46.4 83.7872 46.3363C83.7818 46.2503 83.7818 46.1641 83.7872 46.0782C83.7979 46.0352 83.8015 45.9742 83.8051 45.9169Z" fill="#723729"/>
<path d="M18.6109 65.9065C18.1557 66.3008 17.7722 66.7775 17.3385 67.2327C16.4316 65.799 16.6216 64.333 17.8008 62.9315C18.2635 63.1657 18.7427 63.3658 19.2345 63.5301C19.9265 63.74 20.6647 63.7429 21.3582 63.5385C22.0518 63.334 22.6704 62.9312 23.1378 62.3796C24.1235 61.2792 24.1092 60.0068 23.5536 58.7343C22.9981 57.4619 21.9873 56.5838 20.5356 56.6662C17.9872 56.7845 15.7972 57.6949 14.514 60.0605C14.0573 60.9806 13.6656 61.9316 13.342 62.9064C12.1269 66.1682 14.0588 69.8206 16.8832 71.3439C17.9513 71.8766 19.1654 72.0414 20.3368 71.8126C21.5082 71.5837 22.5711 70.9741 23.3601 70.0786C24.0984 69.179 24.335 68.204 23.8332 67.0822C22.869 64.9208 20.4281 64.3438 18.6109 65.9065ZM19.7471 59.6412L19.808 59.5516C19.8661 59.4642 19.945 59.3925 20.0376 59.3431C20.1302 59.2937 20.2336 59.268 20.3385 59.2684C20.4885 59.2672 20.6338 59.3207 20.7471 59.4189H20.7686C20.9035 59.5427 20.9907 59.7099 21.0149 59.8913C21.0392 60.0728 20.9989 60.257 20.9012 60.4118C20.8724 60.4595 20.8401 60.5051 20.8045 60.548C20.8045 60.5695 20.7722 60.5874 20.7579 60.6053L20.7113 60.6555C20.6725 60.6946 20.6277 60.7273 20.5787 60.7523C20.5609 60.7626 20.5415 60.7698 20.5213 60.7738H20.4711C20.3905 60.7857 20.3081 60.7732 20.2346 60.738L20.1557 60.6985C20.062 60.6416 19.9733 60.5768 19.8905 60.505L19.8439 60.4655C19.7352 60.3604 19.6661 60.2208 19.6485 60.0706C19.6309 59.9204 19.6657 59.7687 19.7471 59.6412ZM21.3493 68.8385V68.86C21.3223 68.9095 21.2924 68.9574 21.2597 69.0033C21.2249 69.057 21.1853 69.1074 21.1414 69.1539C21.1071 69.1944 21.0659 69.2284 21.0195 69.2542C21.0015 69.2659 20.9823 69.2755 20.9622 69.2829C20.8944 69.3034 20.8221 69.3034 20.7543 69.2829C20.7198 69.2794 20.686 69.271 20.6539 69.2578C20.6171 69.2491 20.5811 69.2371 20.5464 69.222L20.4281 69.1969L20.3528 69.1718H20.3349C20.2496 69.1283 20.1818 69.057 20.1427 68.9696C20.1036 68.8822 20.0955 68.7841 20.1199 68.6915C20.131 68.6573 20.1466 68.6247 20.1665 68.5947C20.1665 68.5732 20.1916 68.5553 20.2023 68.5374L20.2381 68.4836C20.2632 68.4514 20.2847 68.4191 20.3098 68.3904C20.3677 68.3223 20.4354 68.2631 20.5106 68.2148L20.5571 68.1897C20.5961 68.1674 20.6385 68.1516 20.6826 68.1431C20.7004 68.1397 20.7186 68.1397 20.7364 68.1431C20.8805 68.1271 21.0262 68.1532 21.1557 68.2184L21.2131 68.2506C21.3007 68.3174 21.3622 68.4127 21.387 68.52C21.4119 68.6273 21.3986 68.7399 21.3493 68.8385Z" fill="#723729"/>
<path d="M88.5467 58.7558C85.6793 57.9494 83.2061 58.8813 81.2742 61.0534C79.4821 63.0785 79.2383 65.4764 80.1667 67.9711C80.6434 69.2507 81.5323 70.2614 82.9445 70.4227C83.6326 70.4696 84.3136 70.2588 84.8549 69.8313C85.4392 69.3403 85.1202 68.5911 84.7474 67.989C84.5825 67.7237 84.389 67.4693 84.2313 67.204C83.9788 66.8088 83.8353 66.3539 83.8153 65.8853C83.7954 65.4167 83.8997 64.9512 84.1177 64.536C84.3357 64.1208 84.6596 63.7706 85.0566 63.5209C85.4536 63.2712 85.9096 63.131 86.3782 63.1143C89.1847 62.8885 90.8765 65.4979 89.7152 68.2542C89.622 68.4657 89.536 68.6807 89.4536 68.8922C89.3838 69.0635 89.3499 69.2472 89.3539 69.4321C89.358 69.6169 89.4 69.799 89.4773 69.967C89.5545 70.135 89.6655 70.2853 89.8032 70.4087C89.9409 70.5321 90.1025 70.6259 90.278 70.6844C90.726 70.8098 91.1167 70.6449 91.6221 70.2112C92.101 69.8071 92.505 69.3218 92.8156 68.7775C95.0128 64.7058 93.0522 60.0247 88.5467 58.7558Z" fill="#723729"/>
<path d="M98.7585 55.7056C98.2065 52.8489 95.3391 50.813 92.4717 51.3614C91.6078 51.5256 90.8138 51.9472 90.1939 52.5709C89.574 53.1946 89.1573 53.9912 88.9985 54.8561C88.8806 55.4106 88.9224 55.9872 89.1191 56.5188C89.3158 57.0505 89.6593 57.5155 90.1096 57.8598C90.2626 57.9701 90.4363 58.0484 90.6203 58.0902C90.8042 58.1319 90.9947 58.1362 91.1803 58.1027C91.366 58.0693 91.543 57.9988 91.7008 57.8955C91.8586 57.7921 91.994 57.6581 92.0989 57.5013C92.3211 57.1752 92.5469 56.8311 92.7512 56.4798C93.4681 55.2611 94.7764 55.1572 95.5291 56.3508C95.7705 56.7738 95.9012 57.2509 95.909 57.7379C95.9233 58.6829 95.8886 59.6281 95.8051 60.5695C95.5972 63.2935 95.3606 66.0104 95.1455 68.7309C95.0969 69.0587 95.1292 69.3935 95.2398 69.7059C95.3504 70.0183 95.5359 70.2989 95.78 70.5231C95.9201 70.6439 96.0891 70.7266 96.2706 70.763C96.4521 70.7994 96.6399 70.7884 96.8158 70.731C97.1106 70.6284 97.3692 70.4423 97.5601 70.1954C97.751 69.9485 97.866 69.6514 97.8911 69.3403C98.2091 67.7514 98.4341 66.1453 98.565 64.5301C98.6832 61.5946 99.3499 58.677 98.7585 55.7056Z" fill="#723729"/>
<path d="M39.425 50.175C40.339 50.8919 41.3856 51.2503 42.5433 50.745C43.9183 50.1775 45.0718 49.1788 45.8301 47.899C47.2387 45.5298 46.6366 41.881 44.5684 40.1677C43.5648 39.3361 42.3497 39.1569 41.3426 39.8093C40.2243 40.5261 39.4931 41.5333 39.5504 42.9097C39.6113 44.2287 40.5576 44.6266 41.6651 43.881C41.8951 43.7443 42.1347 43.6245 42.382 43.5226C42.4274 43.5008 42.4794 43.4971 42.5274 43.5125C42.5754 43.5278 42.6157 43.5609 42.6401 43.605C43.6293 45.3972 43.2422 46.9241 41.5433 47.9635C41.5104 47.9824 41.4737 47.9938 41.436 47.9969C41.3982 48 41.3602 47.9947 41.3246 47.9815C41.183 47.9303 41.0443 47.8717 40.9089 47.8058C40.1382 47.4116 39.3819 47.3865 38.9088 48.1643C38.4357 48.9421 38.7762 49.6625 39.425 50.175Z" fill="#723729"/>
</svg>
