<svg width="36" height="36" viewBox="0 0 36 36" fill="none" xmlns="http://www.w3.org/2000/svg">
<path d="M18 36C27.9411 36 36 27.9411 36 18C36 8.05887 27.9411 0 18 0C8.05887 0 0 8.05887 0 18C0 27.9411 8.05887 36 18 36Z" fill="#FFE1D8"/>
<path d="M18 9C14.5778 9 11.0058 11.6763 11 15.5106C10.993 20.0991 18 27 18 27C18 27 25.0074 20.1087 25 15.5106C24.9938 11.682 21.4222 9 18 9ZM18 18.5745C16.2819 18.5745 14.8889 17.2026 14.8889 15.5106C14.8889 13.8186 16.2819 12.4468 18 12.4468C19.7181 12.4468 21.1111 13.8186 21.1111 15.5106C21.1111 17.2026 19.7181 18.5745 18 18.5745Z" fill="#FF3D00"/>
</svg>
