<svg width="36" height="36" viewBox="0 0 36 36" fill="none" xmlns="http://www.w3.org/2000/svg">
<path d="M18 36C27.9411 36 36 27.9411 36 18C36 8.05887 27.9411 0 18 0C8.05887 0 0 8.05887 0 18C0 27.9411 8.05887 36 18 36Z" fill="#D8FFFB"/>
<path d="M9 10.0588V11.9647C9.05294 18.9529 18.0529 26.9471 24.0353 27H25.9941C26.5235 27 27 26.5765 27 25.9941V22.2353C27 21.7059 26.5235 21.2294 25.9941 21.2294L21.7059 21.1765L19.5353 23.4529C18.1588 23.4529 12.6 17.8941 12.5471 16.4647L14.8235 14.2941V10.0059C14.8235 9.47647 14.2941 9 13.7647 9H10.0059C9.42353 9 9 9.52941 9 10.0588Z" fill="#009688"/>
</svg>
