<svg width="14" height="13" viewBox="0 0 14 13" fill="none" xmlns="http://www.w3.org/2000/svg">
<path d="M5.72718 0.489706C5.81573 0.340483 5.94158 0.216868 6.09236 0.131008C6.24314 0.0451484 6.41367 0 6.58718 0C6.7607 0 6.93123 0.0451484 7.08201 0.131008C7.23279 0.216868 7.35864 0.340483 7.44718 0.489706L8.91418 2.95971C8.98465 3.07851 9.07896 3.18144 9.19117 3.26199C9.30339 3.34253 9.43108 3.39896 9.56618 3.42771L12.3832 4.02771C12.5553 4.06427 12.7147 4.14561 12.8454 4.26351C12.976 4.38141 13.0732 4.53169 13.1272 4.69918C13.1812 4.86667 13.19 5.04543 13.1528 5.21742C13.1155 5.38941 13.0336 5.54852 12.9152 5.67871L11.0152 7.76671C10.9205 7.87082 10.8488 7.99376 10.8048 8.12748C10.7609 8.2612 10.7457 8.4027 10.7602 8.54271L11.0492 11.3427C11.0669 11.5161 11.039 11.6912 10.9683 11.8505C10.8975 12.0098 10.7863 12.1479 10.6457 12.251C10.5051 12.3541 10.34 12.4186 10.1668 12.4382C9.99359 12.4578 9.81825 12.4318 9.65819 12.3627L6.98718 11.2097C6.86185 11.1555 6.72674 11.1275 6.59018 11.1275C6.45363 11.1275 6.31852 11.1555 6.19318 11.2097L3.51818 12.3647C3.35787 12.434 3.18222 12.46 3.00871 12.4403C2.83519 12.4206 2.66987 12.3557 2.52919 12.2523C2.38851 12.1488 2.27738 12.0103 2.20685 11.8506C2.13632 11.6908 2.10885 11.5154 2.12718 11.3417L2.41618 8.54171C2.43069 8.4017 2.41547 8.26021 2.37153 8.12648C2.32759 7.99276 2.25591 7.86982 2.16118 7.76571L0.261184 5.67771C0.142807 5.54793 0.0607035 5.38926 0.0231366 5.21766C-0.0144303 5.04607 -0.00613485 4.86761 0.047188 4.70024C0.100511 4.53287 0.19698 4.3825 0.326886 4.26426C0.456791 4.14602 0.61555 4.06409 0.787184 4.02671L3.60418 3.42671C3.73929 3.39796 3.86698 3.34153 3.97919 3.26099C4.09141 3.18044 4.18572 3.07751 4.25618 2.95871L5.72718 0.489706Z" fill="#F4B54B"/>
</svg>
