<svg width="51" height="50" viewBox="0 0 51 50" fill="none" xmlns="http://www.w3.org/2000/svg">
<rect x="0.5" width="50" height="50" rx="25" fill="#F5E7D0"/>
<path d="M22.2856 27.8872C22.2856 27.356 22.0975 26.9465 21.7212 26.6587C21.3504 26.3709 20.6781 26.0804 19.7041 25.7871C18.7301 25.4938 17.9554 25.1673 17.3799 24.8076C16.2786 24.1159 15.728 23.2139 15.728 22.1016C15.728 21.1276 16.1237 20.3252 16.915 19.6943C17.7119 19.0635 18.744 18.748 20.0112 18.748C20.8524 18.748 21.6022 18.903 22.2607 19.2129C22.9193 19.5228 23.4367 19.9655 23.813 20.541C24.1893 21.111 24.3774 21.7446 24.3774 22.4419H22.2856C22.2856 21.811 22.0864 21.3185 21.688 20.9644C21.2951 20.6047 20.7306 20.4248 19.9946 20.4248C19.3084 20.4248 18.7744 20.5715 18.3926 20.8647C18.0163 21.158 17.8281 21.5675 17.8281 22.0933C17.8281 22.536 18.0329 22.9067 18.4424 23.2056C18.8519 23.4989 19.527 23.7866 20.4678 24.0688C21.4085 24.3455 22.1639 24.6637 22.7339 25.0234C23.3039 25.3776 23.7217 25.7871 23.9873 26.252C24.2529 26.7113 24.3857 27.2508 24.3857 27.8706C24.3857 28.8778 23.9984 29.6802 23.2236 30.2778C22.4544 30.87 21.4085 31.166 20.0859 31.166C19.2116 31.166 18.4064 31.0055 17.6704 30.6846C16.9399 30.3581 16.37 29.9098 15.9604 29.3398C15.5565 28.7699 15.3545 28.1058 15.3545 27.3477H17.4546C17.4546 28.0339 17.6815 28.5651 18.1353 28.9414C18.589 29.3177 19.2393 29.5059 20.0859 29.5059C20.8164 29.5059 21.3643 29.3592 21.7295 29.0659C22.1003 28.7671 22.2856 28.3742 22.2856 27.8872ZM32.5454 27.8872C32.5454 27.356 32.3573 26.9465 31.981 26.6587C31.6102 26.3709 30.9378 26.0804 29.9639 25.7871C28.9899 25.4938 28.2152 25.1673 27.6396 24.8076C26.5384 24.1159 25.9878 23.2139 25.9878 22.1016C25.9878 21.1276 26.3835 20.3252 27.1748 19.6943C27.9717 19.0635 29.0037 18.748 30.271 18.748C31.1121 18.748 31.862 18.903 32.5205 19.2129C33.179 19.5228 33.6965 19.9655 34.0728 20.541C34.4491 21.111 34.6372 21.7446 34.6372 22.4419H32.5454C32.5454 21.811 32.3462 21.3185 31.9478 20.9644C31.5549 20.6047 30.9904 20.4248 30.2544 20.4248C29.5682 20.4248 29.0342 20.5715 28.6523 20.8647C28.276 21.158 28.0879 21.5675 28.0879 22.0933C28.0879 22.536 28.2926 22.9067 28.7021 23.2056C29.1117 23.4989 29.7868 23.7866 30.7275 24.0688C31.6683 24.3455 32.4237 24.6637 32.9937 25.0234C33.5636 25.3776 33.9814 25.7871 34.2471 26.252C34.5127 26.7113 34.6455 27.2508 34.6455 27.8706C34.6455 28.8778 34.2581 29.6802 33.4834 30.2778C32.7142 30.87 31.6683 31.166 30.3457 31.166C29.4714 31.166 28.6662 31.0055 27.9302 30.6846C27.1997 30.3581 26.6297 29.9098 26.2202 29.3398C25.8162 28.7699 25.6143 28.1058 25.6143 27.3477H27.7144C27.7144 28.0339 27.9412 28.5651 28.395 28.9414C28.8488 29.3177 29.499 29.5059 30.3457 29.5059C31.0762 29.5059 31.624 29.3592 31.9893 29.0659C32.36 28.7671 32.5454 28.3742 32.5454 27.8872Z" fill="black"/>
</svg>
