<svg width="51" height="50" viewBox="0 0 51 50" fill="none" xmlns="http://www.w3.org/2000/svg">
<rect x="0.5" width="50" height="50" rx="25" fill="#F5E7D0"/>
<path d="M20.7896 18.9141H22.8813V27.3892C22.8813 28.5457 22.5189 29.4644 21.7939 30.145C21.0745 30.8257 20.1227 31.166 18.9385 31.166C17.6768 31.166 16.7028 30.8478 16.0166 30.2114C15.3304 29.575 14.9873 28.6896 14.9873 27.5552H17.0791C17.0791 28.1971 17.2368 28.6813 17.5522 29.0078C17.8732 29.3288 18.3353 29.4893 18.9385 29.4893C19.5029 29.4893 19.9512 29.3039 20.2832 28.9331C20.6208 28.5568 20.7896 28.0394 20.7896 27.3809V18.9141ZM34.021 20.6074H30.2524V31H28.1689V20.6074H24.4336V18.9141H34.021V20.6074Z" fill="black"/>
</svg>
