<svg width="51" height="50" viewBox="0 0 51 50" fill="none" xmlns="http://www.w3.org/2000/svg">
<rect x="0.5" width="50" height="50" rx="25" fill="#F5E7D0"/>
<path d="M24.8506 18.9141V26.9907C24.8506 28.2746 24.4383 29.2928 23.6138 30.0454C22.7948 30.7925 21.7018 31.166 20.335 31.166C18.9515 31.166 17.853 30.798 17.0396 30.062C16.2261 29.3205 15.8193 28.2939 15.8193 26.9824V18.9141H17.9111V26.999C17.9111 27.807 18.1159 28.424 18.5254 28.8501C18.9349 29.2762 19.5381 29.4893 20.335 29.4893C21.9508 29.4893 22.7588 28.637 22.7588 26.9326V18.9141H24.8506ZM34.0645 25.8784H29.2002V31H27.1001V18.9141H34.7783V20.6074H29.2002V24.2017H34.0645V25.8784Z" fill="black"/>
</svg>
