<svg width="51" height="50" viewBox="0 0 51 50" fill="none" xmlns="http://www.w3.org/2000/svg">
<rect x="0.5" width="50" height="50" rx="25" fill="#F5E7D0"/>
<path d="M20.8828 18.9141H22.9746V27.3892C22.9746 28.5457 22.6121 29.4644 21.8872 30.145C21.1678 30.8257 20.216 31.166 19.0317 31.166C17.77 31.166 16.7961 30.8478 16.1099 30.2114C15.4237 29.575 15.0806 28.6896 15.0806 27.5552H17.1724C17.1724 28.1971 17.3301 28.6813 17.6455 29.0078C17.9665 29.3288 18.4285 29.4893 19.0317 29.4893C19.5962 29.4893 20.0444 29.3039 20.3765 28.9331C20.714 28.5568 20.8828 28.0394 20.8828 27.3809V18.9141ZM31.9644 28.186H27.2827L26.3032 31H24.1201L28.6855 18.9141H30.5698L35.1436 31H32.9521L31.9644 28.186ZM27.8721 26.4927H31.375L29.6235 21.479L27.8721 26.4927Z" fill="black"/>
</svg>
