<svg width="24" height="22" viewBox="0 0 24 22" fill="none" xmlns="http://www.w3.org/2000/svg">
<path d="M16.5692 0.711914C15.0775 0.717883 13.6473 1.30699 12.5842 2.35338C11.521 3.39977 10.9092 4.82046 10.8795 6.31191C8.79971 6.14012 6.82879 5.30995 5.25281 3.94191C4.57724 3.356 4.03218 2.63478 3.6529 1.82491C3.59691 1.68324 3.50418 1.55906 3.38424 1.46515C3.26431 1.37124 3.12151 1.31099 2.97055 1.29062C2.8196 1.27025 2.66594 1.29048 2.5254 1.34924C2.38486 1.408 2.26253 1.50316 2.17099 1.62491C1.50209 2.62241 1.14401 3.79588 1.14205 4.99691C1.14332 5.95574 1.41767 6.89436 1.933 7.70291C1.917 7.69591 1.81001 7.65791 1.81001 7.65791C1.67339 7.58952 1.52097 7.5589 1.36853 7.56922C1.2161 7.57954 1.0692 7.63042 0.943039 7.71661C0.816882 7.80279 0.716058 7.92114 0.65101 8.05939C0.585962 8.19764 0.559056 8.35077 0.573078 8.50291C0.906412 10.1629 1.83007 11.6458 3.17293 12.6769L2.93594 12.7359C2.80729 12.7679 2.68779 12.8292 2.58686 12.9152C2.48593 13.0011 2.40631 13.1093 2.35427 13.2312C2.30222 13.3531 2.27917 13.4855 2.28693 13.6178C2.29469 13.7502 2.33304 13.8789 2.39898 13.9939C2.72603 14.4964 3.12721 14.9465 3.58891 15.3289C4.20362 15.8161 4.87762 16.2233 5.5948 16.5409C4.07235 17.0671 2.46847 17.3183 0.858062 17.2829C0.693301 17.2828 0.531998 17.3302 0.393474 17.4194C0.25495 17.5086 0.145078 17.6359 0.0770186 17.7859C0.0089592 17.936 -0.0144021 18.1025 0.00973259 18.2654C0.0338673 18.4284 0.104475 18.581 0.213098 18.7049C0.779562 19.2647 1.43944 19.7212 2.16299 20.0539C4.08506 20.9213 6.17877 21.3415 8.28664 21.2829C10.3905 21.3185 12.4718 20.8441 14.3524 19.9002C16.2331 18.9563 17.8572 17.5711 19.086 15.8629C21.0955 13.12 22.2126 9.82538 22.2859 6.42591C22.2859 6.24991 22.2749 6.07591 22.2589 5.90391C22.9222 5.30094 23.4891 4.59979 23.9398 3.82491C23.9931 3.71905 24.0122 3.59921 23.9943 3.48202C23.9765 3.36483 23.9226 3.2561 23.8402 3.17091C23.7577 3.08573 23.6508 3.02831 23.5343 3.00663C23.4177 2.98495 23.2974 3.00008 23.1898 3.04991L23.0968 3.09191L22.8578 3.20091C23.0878 2.83351 23.2693 2.43789 23.3978 2.02391C23.4322 1.91326 23.4321 1.79476 23.3976 1.68414C23.3631 1.57353 23.2957 1.47604 23.2044 1.40464C23.1132 1.33323 23.0023 1.29128 22.8867 1.28437C22.771 1.27745 22.656 1.30589 22.5568 1.36591C21.9136 1.7653 21.2189 2.07515 20.492 2.28691C19.4352 1.27743 18.0305 0.713441 16.5692 0.711914ZM16.5692 2.42591C17.0949 2.4242 17.6158 2.52649 18.1019 2.7269C18.5879 2.92731 19.0295 3.22188 19.4013 3.59366C19.773 3.96544 20.0676 4.40707 20.268 4.89315C20.4684 5.37923 20.5707 5.90015 20.569 6.42591C20.4781 9.45653 19.479 12.39 17.7011 14.8459C16.6415 16.3474 15.2276 17.564 13.5849 18.3879C11.9423 19.2118 10.1217 19.6175 8.28464 19.5689C6.69514 19.6044 5.114 19.3293 3.62991 18.7589C4.57911 18.629 5.51256 18.4025 6.41575 18.0829C7.0803 17.8403 7.7056 17.5013 8.27164 17.0769C8.391 16.9746 8.47989 16.8414 8.52861 16.6919C8.57732 16.5424 8.58398 16.3824 8.54784 16.2294C8.51171 16.0763 8.43417 15.9362 8.32373 15.8243C8.21329 15.7124 8.07419 15.633 7.92166 15.5949C6.75747 15.3317 5.66947 14.8041 4.74184 14.0529L5.63579 13.8299C5.81277 13.7859 5.97112 13.6867 6.08779 13.5465C6.20447 13.4064 6.2734 13.2326 6.28455 13.0506C6.2957 12.8686 6.2485 12.6877 6.14981 12.5344C6.05111 12.381 5.90608 12.2632 5.73579 12.1979C5.08381 11.9961 4.47929 11.6648 3.95849 11.2237C3.43768 10.7826 3.01132 10.2408 2.70496 9.63091C3.22127 9.7659 3.75139 9.84106 4.28487 9.85491C4.47806 9.85507 4.66564 9.78994 4.81717 9.67008C4.9687 9.55022 5.07529 9.38268 5.11963 9.19463C5.16398 9.00658 5.14348 8.80907 5.06148 8.63413C4.97947 8.45919 4.84075 8.3171 4.66785 8.23091C3.93653 7.82801 3.37333 7.17692 3.07994 6.39517C2.78655 5.61342 2.78229 4.75253 3.06794 3.96791C3.36396 4.41426 3.70652 4.82791 4.08988 5.20191C6.18913 7.04534 8.87328 8.08583 11.6665 8.13891C11.7825 8.14474 11.8985 8.12692 12.0074 8.08653C12.1163 8.04615 12.2159 7.98404 12.3 7.90397C12.3842 7.82391 12.4512 7.72757 12.497 7.62081C12.5428 7.51404 12.5664 7.39908 12.5664 7.28291V6.42591C12.5647 5.89989 12.6671 5.37873 12.8677 4.89245C13.0682 4.40618 13.3631 3.96441 13.7351 3.59259C14.1072 3.22077 14.5492 2.92626 15.0356 2.72603C15.522 2.5258 16.0432 2.4238 16.5692 2.42591Z" fill="#1DA1F3"/>
</svg>
