<svg width="14" height="13" viewBox="0 0 14 13" fill="none" xmlns="http://www.w3.org/2000/svg">
<path d="M6.58724 1.00064L5.1208 3.4704C4.83667 3.94891 4.36154 4.28975 3.8172 4.40554L0.999846 5.0048L2.89999 7.09252C3.28254 7.51285 3.46857 8.07819 3.41036 8.6436L3.12169 11.4468L5.79387 10.2917C6.04586 10.1828 6.31285 10.1276 6.58741 10.1276C6.86195 10.1276 7.12893 10.1828 7.38093 10.2917L10.0531 11.4468L9.76446 8.64356C9.70625 8.07819 9.89228 7.51286 10.2748 7.09252L12.175 5.0048C12.175 5.0048 12.175 5.0048 12.175 5.0048L9.35761 4.40554C8.81329 4.28975 8.33815 3.94891 8.05402 3.4704L6.58724 1.00064ZM6.58741 0.000366211C6.92046 0.000366211 7.25351 0.163516 7.44726 0.489817L8.91387 2.95985C9.05637 3.19984 9.29267 3.36935 9.56567 3.42742L12.383 4.02668C13.1382 4.18732 13.4342 5.10688 12.9145 5.6779L11.0144 7.76562C10.8229 7.97605 10.7301 8.25811 10.7592 8.54115L11.0479 11.3443C11.1261 12.1043 10.3577 12.6678 9.65637 12.3647L6.98417 11.2097C6.73098 11.1002 6.44384 11.1002 6.19065 11.2097L3.51845 12.3647C2.81711 12.6678 2.04868 12.1043 2.12695 11.3443L2.41562 8.54116C2.44476 8.25811 2.35195 7.97605 2.16043 7.76562L0.260295 5.6779C-0.259414 5.10688 0.0365758 4.18732 0.791795 4.02668L3.60915 3.42742C3.88214 3.36935 4.11845 3.19984 4.26095 2.95985L5.72756 0.489817C5.9213 0.163516 6.25435 0.000366211 6.58741 0.000366211Z" fill="#808080"/>
</svg>
