<svg width="24" height="24" viewBox="0 0 24 24" fill="none" xmlns="http://www.w3.org/2000/svg">
<path d="M12.0001 0C8.81866 0.00370522 5.76857 1.26918 3.51893 3.51881C1.2693 5.76844 0.00382729 8.81854 0.00012207 12C0.0123006 13.8956 0.477571 15.7608 1.35712 17.44L0.0571222 22.097C-0.00484003 22.3522 -0.000113577 22.6191 0.0708475 22.8719C0.141809 23.1248 0.276618 23.3551 0.462318 23.5408C0.648018 23.7265 0.878364 23.8613 1.13121 23.9323C1.38406 24.0032 1.65092 24.008 1.90612 23.946L6.56712 22.646C8.24446 23.5235 10.1071 23.9877 12.0001 24C13.576 24 15.1364 23.6896 16.5923 23.0866C18.0482 22.4835 19.3711 21.5996 20.4854 20.4853C21.5997 19.371 22.4836 18.0481 23.0867 16.5922C23.6897 15.1363 24.0001 13.5759 24.0001 12C24.0001 10.4241 23.6897 8.86371 23.0867 7.4078C22.4836 5.95189 21.5997 4.62902 20.4854 3.51472C19.3711 2.40042 18.0482 1.5165 16.5923 0.913445C15.1364 0.310389 13.576 -2.34822e-08 12.0001 0ZM12.0001 1.8C13.5581 1.79929 15.0955 2.15546 16.4944 2.84119C17.8933 3.52693 19.1165 4.524 20.0702 5.75591C21.024 6.98783 21.6828 8.42184 21.9962 9.94792C22.3097 11.474 22.2694 13.0516 21.8784 14.5597C21.4874 16.0678 20.7562 17.4663 19.7408 18.6479C18.7254 19.8295 17.4528 20.7628 16.0207 21.3762C14.5886 21.9895 13.035 22.2667 11.4792 22.1864C9.9233 22.1062 8.40649 21.6705 7.04512 20.913C6.83798 20.7975 6.59361 20.7683 6.36512 20.832L1.93412 22.067L3.17212 17.637C3.23606 17.4082 3.20694 17.1634 3.09112 16.956C2.22634 15.4041 1.78217 13.6531 1.80264 11.8766C1.82311 10.1001 2.3075 8.35975 3.20781 6.82815C4.10812 5.29654 5.39307 4.02682 6.93531 3.14485C8.47755 2.26288 10.2235 1.79928 12.0001 1.8ZM7.94412 6.6C7.7989 6.6039 7.65606 6.63781 7.52457 6.69959C7.39309 6.76137 7.27582 6.8497 7.18012 6.959C6.85628 7.26542 6.60005 7.63613 6.42784 8.04736C6.25564 8.45858 6.17126 8.90126 6.18012 9.347C6.2735 10.4278 6.6801 11.4578 7.35012 12.311C8.54068 14.1859 10.2378 15.6854 12.2451 16.636C14.6651 17.59 15.1581 17.4 15.6831 17.352C16.0835 17.2744 16.463 17.1129 16.7965 16.8782C17.13 16.6434 17.41 16.3407 17.6181 15.99C17.8051 15.5623 17.8638 15.0895 17.7871 14.629C17.7161 14.51 17.5241 14.437 17.2371 14.294C16.9501 14.151 15.5431 13.458 15.2801 13.362C15.0171 13.266 14.8251 13.218 14.6341 13.505C14.4431 13.792 13.8941 14.437 13.7271 14.628C13.5601 14.819 13.3931 14.844 13.1061 14.701C12.2609 14.3637 11.4807 13.8822 10.8001 13.278C10.1737 12.6993 9.63681 12.0307 9.20712 11.294C9.04012 11.008 9.18912 10.851 9.33212 10.709C9.47512 10.567 9.61912 10.375 9.76212 10.209C9.87906 10.0642 9.975 9.9036 10.0471 9.732C10.0849 9.65326 10.1026 9.56636 10.0986 9.4791C10.0946 9.39184 10.069 9.30694 10.0241 9.232C9.95312 9.089 9.39512 7.671 9.14012 7.104C8.92612 6.628 8.70012 6.617 8.49512 6.609C8.32712 6.6 8.13512 6.6 7.94412 6.6Z" fill="#40C351"/>
</svg>
